<svg xmlns="http://www.w3.org/2000/svg" viewBox="0 0 572.9 573.4"><defs><style>.a{fill:#d0587b;}</style></defs><title>未标题-1</title><path class="a" d="M236.2,20.8,228.7,74h26.4l7.6-53.2Zm178.2,301L228.7,374,383,292.4l-20-14,29.6,6.1L495.8,221,450,300l138,41s-.1-174.3-.2-263V68C581.1,82.8,569,88.4,554,88.9c-9.7.4-19.4.1-29,.3-16.8.3-19.4,2.8-20.1,19.1-.1,2.8-.9,3.8-3.7,3.7-7.7-.1-15.4-.1-23,.1-3.3,0-4-1.4-3.9-4.2.3-5.3.2-10.7.9-16,2.2-16.1,11.8-25,28-26.9,11.6-1.5,23.3-.8,34.9-1A40.3,40.3,0,0,0,549,62.6c6-1.7,8.6-6.7,8.1-15.3-.4-6.5-3.8-10.6-9.7-11.4-4-.5-8-.8-11.9-.9-20,0-80-.1-100,.1-3.5,0-4.8-.9-4.6-4.5s-.1-8.3.2-12.5-.8-5.1-4.9-5.1H384.8L378.5,58h10.6l-1.8,13.3H376.6l-2.2,16H347.8l2.2-16H302.3L304.1,58l13.5-44.9H290.3l-9,64.7a11.1,11.1,0,0,1-3.8,6.7,10,10,0,0,1-7.1,2.8H200.2L210,17.1a10.6,10.6,0,0,1,1.4-4H184.8L178.4,58H189l-1.8,13.3H176.6l-2.3,16H147.7l2.3-16H102.2L104.1,58l13.5-45H41.4c-12.2.1-26.1,14.3-26.1,25.7-.2,22.9-.2,78.7-.2,78.7l102.7,79.7s-40.1,58-47.2,67.4L15.3,143s0,198.3-.2,234.5a32,32,0,0,0,3.4,14.3,12.7,12.7,0,0,0,2.4,3.3L174.2,168.8,30,65l184,65.1,10.4,118.1L28,402a17.2,17.2,0,0,0,4,3.1c6.2,2.9,11.8,2.9,18.5,2.9q137.5,0,274.8-.4c8.8,0,15.4,2.6,22.2,7.6,31.4,22.9,63,45.5,94.6,68.1,3.5,2.5,7.4,1,8.4-3.2a20.2,20.2,0,0,0,.3-4.9c.1-20.5.2-41-.1-61.5-.1-5.1,1.6-5.9,6.2-5.9,32.9.2,65.9.1,98.8,0,16.1,0,31.1-9.7,32.1-24.7.2-3.6.2-5.1.2-5.1l-75.2.6Zm1.6-97.1L286.5,316.5,399,198.1l87.9,13ZM310,267.1l25.5-52.2,34.1-8.6Zm194.9-66.4L450,189l70.2-13.8Zm-30.6-77.4c0-2.2,1-3.2,3.4-3.2q12,.2,24,0c2.3,0,3.2,1.1,3.2,3.4q-.1,9,0,18c0,2.4-1.2,3.2-3.4,3.2H478c-2.3.1-3.7-.6-3.7-3.4C474.4,135.3,474.3,129.3,474.3,123.3Zm-94.3-12L418,34l-9.5,69.4L460,88.8l-52.4,61.4,116.4,11L341.7,200.7l24.7-55.6-57.2-14.6Zm-42,51.2-87.3,71-5.9-97.1ZM120,368,311.7,219,263,326.8ZM262.7,20.8H236.2L228.7,74h26.4ZM158.2,13.1H144.1L131.1,58h20.7Zm185.9,0L331.1,58h20.8l6.4-44.9Z" transform="translate(-15.1 -13)"/><path class="a" d="M65.4,543.2c-1.9,10.6-6.4,24-11.4,35.4l-10.9-3.7v10H29.8V546c-1.9,2.8-4,5.6-6.1,8.2l-3.4-19.6a96.9,96.9,0,0,0,14.4-33.1l14.2,3.3a161.3,161.3,0,0,1-5.8,17v47c3.6-9,7.5-20.2,9.3-28.6Zm-21.5-9.8c4.6-7.3,10.7-22.2,12.9-32.3l15,2.6c-.5,1.8-.9,3.7-1.5,5.5h31.5v14.3L96.7,538l-13.6-4.3,3.6-10.5H65.5A123.5,123.5,0,0,1,58,539.6Zm22.9-4.7H81.4v45.2c0,8.5-2.8,10.3-11.4,11.1l-6.7.6L59,570.2l3.4-.5c3.5-.4,4.4-1.6,4.4-4.1Zm27.7,11.7a359.3,359.3,0,0,1,11,34.5l-13.2,3.4C89.5,566,85.9,554.4,82.1,543Z" transform="translate(-15.1 -13)"/><path class="a" d="M149.4,527.6c-1.5,13.3-3.5,22.5-7.5,30.7,3.9,3.2,7.5,6.2,10.4,8.8l-8.2,13.4-10.2-9.7a187,187,0,0,1-14.2,15.1L109,575.8a114.9,114.9,0,0,0,14.5-14.2c-4.1-3.5-7.9-6.4-11-8.9,2-8,3.8-16.2,5.3-24.8H112V513.2h7.9c.4-3.9.8-7.9,1-11.9l14,.7-1.2,11.2h15.7Zm-19,.3c-1.1,6.6-2.4,13.5-3.5,18.4l5.1,4.1a107.2,107.2,0,0,0,4.6-22.5Zm63.1,23.9H179v20.6c0,9.4-2.5,11.3-13.5,12.3l-6.5.6-4.3-15.2,4.8-.4c3.7-.4,4.5-1.3,4.5-5.2V551.8H149.9V536.4H164v-6.3l9.3-10.9H152.7V504.1h37.9v15.4l-11.6,11v5.9h14.5Z" transform="translate(-15.1 -13)"/><path class="a" d="M274,581.7a62.7,62.7,0,0,1-12.6-23l-1.6.9a65.5,65.5,0,0,1,1,12c0,11-3.6,12.6-14.9,14.1l-4.9.6-4-10a146.7,146.7,0,0,1-13.6,7.3l-4.4-7.4V585H206.3V544.5l-5.3,7.2-3-19.2c5.8-9.3,11.1-19.6,13.7-31.4l12.6,2.7c-1,4.4-2.2,8.5-3.5,12.5,6.9-5,12.5-9.8,16.1-15.2l16.2.3c-.6,1.1-1.3,2.2-2,3.3h20.7v10l-4.7,4.3h11.1v21.5h-5.4l5.7,8.2-7.7,4.6c2.8,6.5,7.3,12.2,12.6,17.6Zm-48.9-53-2.9,1.8-3.2-8.8v37.5c9.7-2.1,18.3-4.6,24.1-7.4l-.8-1.3c-4.5,1.4-10.3,3-18,4.8l-3.4-9.5c11.1-1.3,17.4-2.8,21-5.3H225.1ZM219,572.9c11.2-3.5,20.6-8.1,27.1-12.8l-.5-2.1a113.8,113.8,0,0,1-22.4,10.8l-4.2-9.2Zm26.7-41v-4.6h-8.6v4.6Zm-3.8,43.4c3.6-.4,4.9-1.1,5.2-6.4a75.3,75.3,0,0,1-9.3,7Zm1.3-61c-1.6,1.7-3.2,3.2-4.9,4.7h13.2l4.8-4.7ZM256,548.8c4.4-2.6,9-5.4,13.4-8.3H256.7a9,9,0,0,1-2.8,4.6A27.1,27.1,0,0,1,256,548.8Zm9.7-16.9v-4.6h-8.4c0,1.5.1,3.2.1,4.6Z" transform="translate(-15.1 -13)"/><path class="a" d="M372.3,570.2l-3.1,13.7c-13.7.6-29.7.8-43.3.3-10-.2-15.4-2.8-21.8-9.4-3.6,4-8.4,9.3-10.8,11.7l-7.2-14.1c3.6-3.4,6.7-6.3,10.7-10.6V544.5H289V530.9h20.9v30.5c4.3,6.5,10,9.2,18.8,9.5C342.4,571.5,357.9,571,372.3,570.2Zm-69.7-42.5a179.6,179.6,0,0,0-12.5-16.1l10.5-8.5a117.5,117.5,0,0,1,12.2,14.7Zm31.3-.7V502.3l14.4.4v14.7c2.9-3.9,7.3-10.4,9.2-13.7l10.9,7.7c-1.7,2.9-6.7,10.2-9.8,14.2l-10.3-7.8V527h20.3v13.6H348.3v7.6l5-5.6c4.1,2.8,13,10.4,15.7,12.8l-7.7,12c-3-3.6-8.7-8.7-13-12.6v13.1H333.9V553.6a75.2,75.2,0,0,1-14,13.4l-9.3-12.5a61.4,61.4,0,0,0,18-13.9H314.3V527Zm-11.5-1.2a133.1,133.1,0,0,0-9.6-14.7l10.5-7.2a116.2,116.2,0,0,1,10,13.9Z" transform="translate(-15.1 -13)"/><path class="a" d="M455.9,551.7l-.6-.3v32.4H416.8V550.6l-5.5-10.5a111,111,0,0,0,14.8-6.4,56.2,56.2,0,0,1-5.4-7c-1.4,1.4-2.9,2.5-4.4,3.8l-4.5-6.5v13.2h-5v8.9h5.6v12.6h-5.6v8.2l5.8-.6v14.5l-35,3.3-1.5-15,4.7-.3V541.2l10.7.4V568l3.8-.2V537.2H381.5V504h30.3v14.3a75.7,75.7,0,0,0,14.7-17l13.5,1.4-2.6,4.5h19.3v13a42.2,42.2,0,0,1-8.9,13.5,115.7,115.7,0,0,0,13.8,4.9Zm-62.9-27h7.1v-7.5H393Zm58.1,25a118.6,118.6,0,0,1-14.3-7.2,103,103,0,0,1-14.5,7.2Zm-8.5,11.9H429.5v9.6h13.1Zm-13.1-42.1a34.3,34.3,0,0,0,7.2,7.6,51.3,51.3,0,0,0,7.8-7.6Z" transform="translate(-15.1 -13)"/><path class="a" d="M517.5,536.7v34.5c0,9.3-3.9,11.9-15.5,12.9l-8.7.7-5-15.3,7.3-.7c4.3-.3,6-1,6-4.9V530.7l18.1-12H471.8V504.1h72.4v14.8Z" transform="translate(-15.1 -13)"/><path class="a" d="M587.6,512.3l-2.1,36.5H570.9l-2-36.5Zm-18.5,54.1c0-7.5.9-8.9,9.1-8.9s9.1,1.4,9.1,8.9-.9,8.9-9.1,8.9S569.1,573.8,569.1,566.4Z" transform="translate(-15.1 -13)"/></svg>