<?xml version="1.0" encoding="utf-8"?>
<!-- Generator: Adobe Illustrator 22.1.0, SVG Export Plug-In . SVG Version: 6.00 Build 0)  -->
<svg version="1.1" id="图层_1" xmlns="http://www.w3.org/2000/svg" xmlns:xlink="http://www.w3.org/1999/xlink" x="0px" y="0px"
	 viewBox="0 0 2083 927" style="enable-background:new 0 0 2083 927;" xml:space="preserve">
<style type="text/css">
	.st0{fill:#0D1120;}
	.st1{fill:#655D8A;}
	.st2{fill:#71699A;}
	.st3{fill:#FF217B;}
	.st4{fill:#FFA282;}
	.st5{fill:#0CFFE3;}
	.st6{fill:#41345D;}
	.st7{fill:#483C6B;}
	.st8{fill:#08E7D7;}
	.st9{fill:#2CFFE3;}
	.st10{opacity:0.75;fill:#8073C9;enable-background:new    ;}
	.st11{clip-path:url(#SVGID_2_);}
	.st12{fill:#FFB686;}
	.st13{fill:#FFD786;}
	.st14{fill:#15BBC7;}
	.st15{fill:#0AFADF;}
	.st16{fill:#FEFEFE;}
	.st17{fill:#463B66;}
	.st18{clip-path:url(#SVGID_4_);}
	.st19{opacity:0.2;}
	.st20{fill:#FFFFFF;}
	.st21{opacity:0.75;}
	.st22{clip-path:url(#SVGID_6_);}
	.st23{fill:#FF5D79;}
	.st24{fill:#EE187D;}
	.st25{fill:#DB1879;}
	.st26{fill:#EF007D;}
	.st27{clip-path:url(#SVGID_8_);}
	.st28{fill:#D31079;}
</style>
<g>
	<rect class="st0" width="2083" height="927"/>
	<path class="st1" d="M819,84.4c10,17.2,4.7,39.3-12,50.2c-0.5,0.4-1.1,0.7-1.7,1c-17.9,10.4-40.8,4.3-51.2-13.6
		c-10.4-17.9-4.3-40.8,13.6-51.2C785.7,60.3,808.6,66.4,819,84.4C819,84.3,819,84.3,819,84.4z"/>
	<path class="st2" d="M819,84.4c10,17.2,4.7,39.3-12,50.2l-2.4,1.4c-0.5,0.3-1,0.3-1.6,0.2c-0.5-0.1-1-0.5-1.3-1
		c-0.6-1-0.2-2.2,0.8-2.8l2.5-1.4c1-0.6,1.3-1.8,0.8-2.8l-0.1-0.1c-0.6-1-1.8-1.3-2.8-0.8l-9.4,5.4c-0.5,0.3-1,0.4-1.5,0.2
		c-1.1-0.3-1.7-1.4-1.5-2.5c0.1-0.5,0.5-1,1-1.3l12.2-7c1-0.6,1.3-1.8,0.8-2.8v-0.1c-0.6-1-1.8-1.3-2.8-0.8l-14.6,8.4
		c-0.5,0.3-1,0.4-1.5,0.2c-1.1-0.3-1.7-1.4-1.5-2.5c0.1-0.5,0.5-1,1-1.3l18.9-10.9c1-0.5,1.3-1.7,0.8-2.7c0,0,0-0.1-0.1-0.1
		l-0.1-0.1c-0.5-1-1.7-1.3-2.7-0.8c0,0-0.1,0-0.1,0.1l-20.8,12c-1,0.6-2.2,0.2-2.8-0.8c-0.6-1-0.2-2.2,0.8-2.8l13.5-7.8
		c1-0.5,1.3-1.7,0.8-2.7c0,0,0-0.1-0.1-0.1v-0.1c-0.6-1-1.8-1.3-2.8-0.8l-11.2,6.4c-0.5,0.3-1,0.3-1.6,0.2c-0.5-0.1-1-0.5-1.3-1
		c-0.6-1-0.2-2.2,0.8-2.8c0,0,0,0,0,0l15.8-9.1c1-0.6,1.3-1.8,0.8-2.8v-0.1c-0.6-1-1.8-1.3-2.8-0.8l-24.3,14c-0.5,0.3-1,0.3-1.6,0.2
		c-0.5-0.1-1-0.5-1.3-1c-0.6-1-0.2-2.2,0.8-2.8c0,0,0,0,0,0l25.8-14.9c1-0.5,1.3-1.7,0.8-2.7c0,0,0-0.1-0.1-0.1v-0.1
		c-0.6-1-1.8-1.3-2.8-0.8l-20.4,11.8c-0.5,0.3-1,0.4-1.6,0.2c-0.5-0.2-1-0.5-1.3-1c-0.6-0.9-0.3-2.2,0.7-2.7c0,0,0.1,0,0.1-0.1
		l15.8-9.1c1-0.5,1.3-1.7,0.8-2.7c0,0,0-0.1-0.1-0.1l0-0.1c-0.6-1-1.8-1.3-2.8-0.8l-8,4.6c-0.5,0.3-1,0.3-1.6,0.2
		c-0.5-0.1-1-0.5-1.2-1c-0.6-0.9-0.3-2.2,0.7-2.7c0,0,0.1,0,0.1-0.1l9.7-5.5c1-0.6,1.3-1.8,0.8-2.8l0-0.1c-0.6-1-1.8-1.3-2.8-0.8
		l-13.2,7.6c-0.5,0.3-1,0.3-1.6,0.2c-0.5-0.1-1-0.5-1.2-1c-0.6-1-0.2-2.2,0.8-2.8l10.4-6c1-0.6,1.3-1.8,0.8-2.8v-0.1
		c-0.3-0.6-0.4-1.2-0.1-1.8C790,61.4,809.7,68.2,819,84.4z"/>
	<path class="st3" d="M1964.3,265.5c3.7,6.4,1.7,14.5-4.4,18.5l-0.6,0.4c-6.6,3.8-15.1,1.6-18.9-5.1c-3.8-6.6-1.6-15.1,5.1-18.9l0,0
		c0.6-0.3,1.1-0.6,1.8-0.9C1953.5,257,1960.8,259.6,1964.3,265.5z"/>
	<path class="st4" d="M1964.2,265.4c3.7,6.4,1.8,14.8-4.5,18.4l-0.9,0.5c-0.2,0.1-0.3,0.2-0.5,0.2c-0.2,0-0.3-0.1-0.4-0.3
		c-0.2-0.3-0.1-0.8,0.3-1c0,0,0,0,0.1,0l0.9-0.5c0.4-0.2,0.8-0.8,0.6-1.2l0,0c-0.2-0.4-0.8-0.1-1.2,0.1l-3.5,2
		c-0.2,0.1-0.4,0.1-0.6,0c-0.2-0.1-0.4-0.3-0.5-0.5c-0.2-0.4-0.1-0.9,0.2-1.1l4.5-2.6c0.4-0.2,0.4-0.4,0.2-0.8l0,0
		c-0.2-0.4-0.4-0.5-0.8-0.3l-5.4,3.1c-0.2,0.1-0.4,0.1-0.6,0c-0.2-0.1-0.4-0.3-0.6-0.5c-0.2-0.4-0.2-0.9,0.2-1.2l7-4
		c0.4-0.2,0.4-0.3,0.2-0.7l0,0c-0.2-0.4-0.5-0.6-0.9-0.4l-7.7,4.4c-0.2,0.1-0.4,0.1-0.6,0.1c-0.2,0-0.3-0.1-0.4-0.3
		c-0.2-0.3,0-0.7,0.3-0.9c0,0,0,0,0.1,0l5-2.9c0.4-0.3,0.6-0.9,0.5-1.4l0,0c-0.2-0.4-1-0.4-1.4-0.2l-4.1,2.4
		c-0.2,0.1-0.3,0.2-0.5,0.1c-0.2,0-0.3-0.1-0.4-0.3c-0.2-0.3-0.1-0.7,0.2-1c0,0,0.1,0,0.1,0l5.8-3.4c0.4-0.2,0.7-0.9,0.5-1.3l0,0
		c-0.4-0.4-0.9-0.5-1.4-0.3l-9,5.2c-0.2,0.1-0.3,0.2-0.5,0.2c-0.2,0-0.3-0.1-0.4-0.3c-0.2-0.3-0.1-0.8,0.3-1c0,0,0,0,0,0l9.5-5.5
		c0.4-0.2,0.8-0.8,0.6-1.2l0,0c-0.4-0.4-1-0.6-1.5-0.4l-7.5,4.3c-0.2,0.1-0.3,0.3-0.5,0.2c-0.2,0-0.4-0.2-0.4-0.3
		c-0.2-0.4-0.1-0.8,0.3-1l5.8-3.4c0.4-0.2,0.8-0.7,0.6-1.1l0,0c-0.2-0.4-0.9-0.2-1.3,0l-3,1.7c-0.2,0.1-0.4,0.1-0.6,0
		c-0.2-0.1-0.4-0.3-0.5-0.5c-0.2-0.4-0.2-0.9,0.2-1.2l3.6-2c0.4-0.2,0.9-0.6,0.7-1l0,0c-0.2-0.4-0.9-0.3-1.3-0.1l-4.9,2.8
		c-0.2,0.1-0.4,0.1-0.6,0.1c-0.2-0.1-0.4-0.3-0.6-0.5c-0.2-0.4-0.1-0.9,0.2-1.2l3.8-2.2c0.4-0.2,0.8-0.4,0.6-0.8l0,0
		c-0.2-0.2-0.2-0.4-0.2-0.7C1953.5,257.3,1960.7,259.6,1964.2,265.4z"/>
	<path class="st5" d="M1974.7,404.5c42,72.8,19.7,165.8-50.8,211.6c-2.3,1.5-4.7,2.9-7.1,4.3c-75.6,43.7-172.3,17.7-216-57.9
		s-17.7-172.3,57.9-216C1834.3,302.9,1931,328.8,1974.7,404.5L1974.7,404.5z"/>
	<path class="st6" d="M1968.7,408c40.2,69.6,18.9,158.5-48.6,202.3c-2.2,1.4-4.5,2.8-6.8,4.2c-72.3,41.7-164.7,17-206.5-55.3
		s-17-164.7,55.3-206.5C1834.5,310.9,1926.9,335.7,1968.7,408C1968.7,408,1968.7,408,1968.7,408z"/>
	<path class="st7" d="M1968.7,408c40.2,69.6,18.9,158.5-48.6,202.3l-9.8,5.6c-4,2.2-9.1,0.7-11.2-3.4c-2.1-3.9-0.8-8.7,2.9-11
		l10.1-5.8c3.9-2.3,5.3-7.4,3-11.3l-0.1-0.5c-2.3-3.9-7.4-5.3-11.3-3l-38,22c-4,2.3-9,0.9-11.3-3c-2.3-4-0.9-9,3-11.3l49.3-28.4
		c4-2.3,5.3-7.4,3-11.3c0,0,0,0,0,0l-0.2-0.4c-2.3-3.9-7.4-5.3-11.3-3l-58.6,33.8c-4,2.2-9.1,0.7-11.2-3.4c-2.1-3.9-0.8-8.7,2.9-11
		l76.4-44.1c3.9-2.3,5.3-7.4,3-11.3l-0.2-0.4c-2.3-3.9-7.4-5.3-11.3-3l-83.8,48.4c-4,2.3-9,0.9-11.3-3c-2.3-4-0.9-9,3-11.3
		l54.3-31.4c3.9-2.3,5.3-7.4,3-11.3l-0.2-0.4c-2.3-3.9-7.4-5.3-11.3-3l-45,26c-4,2.2-9.1,0.7-11.2-3.4c-2.1-3.9-0.8-8.7,2.9-11
		l63.6-36.7c3.9-2.3,5.3-7.4,3-11.3l-0.2-0.4c-2.3-3.9-7.4-5.3-11.3-3l-98.1,56.6c-4,2.3-9,0.9-11.3-3c-2.3-4-0.9-9,3-11.3l103.9-60
		c4-2.3,5.3-7.4,3-11.3c0,0,0,0,0,0l-0.2-0.4c-2.3-4-7.4-5.3-11.3-3c0,0,0,0,0,0l-81.8,47.3c-4,2.2-9.1,0.7-11.2-3.4
		c-2.1-3.9-0.8-8.7,2.9-11l63.6-36.7c3.9-2.3,5.3-7.4,3-11.3l-0.2-0.4c-2.3-3.9-7.4-5.3-11.3-3l-32.2,18.6c-4,2.2-9.1,0.7-11.2-3.4
		c-2.1-3.9-0.8-8.7,2.9-11L1807,385c3.9-2.3,5.3-7.4,3-11.3l-0.2-0.4c-2.3-4-7.4-5.3-11.3-3c0,0,0,0,0,0l-53.1,30.7
		c-4,2.3-9,0.9-11.3-3c-2.3-4-0.9-9,3-11.3l0,0l42-24.3c3.9-2.3,5.3-7.4,3-11.3l-0.2-0.4c-1.3-2.2-1.5-5-0.5-7.3
		C1851.2,315.2,1931,342.8,1968.7,408z"/>
	<path class="st8" d="M1075.4,122.9c13.4,23.1,6.3,52.7-16.1,67.3c-0.7,0.5-1.5,0.9-2.3,1.4c-24,14-54.7,5.9-68.7-18.1
		c-14-24-5.9-54.7,18.1-68.7c0.1-0.1,0.2-0.1,0.3-0.2c2-1.2,4.2-2.2,6.3-3.1C1036.4,92.1,1062.9,101.2,1075.4,122.9z"/>
	<path class="st9" d="M1075.4,122.9c13.3,23.1,6.3,52.7-16.1,67.2l-3.3,1.9c-0.6,0.4-1.4,0.5-2.1,0.3c-0.7-0.2-1.3-0.6-1.7-1.3
		c-0.8-1.3-0.3-3,1-3.7l3.3-1.9c1.3-0.8,1.8-2.4,1-3.7c0,0,0,0,0,0l-0.1-0.1c-0.7-1.3-2.3-1.8-3.6-1.1c0,0-0.1,0-0.1,0.1l-12.6,7.3
		c-0.6,0.4-1.4,0.4-2.1,0.3c-0.7-0.2-1.3-0.7-1.7-1.3c-0.8-1.3-0.3-3,1-3.8l16.4-9.4c1.3-0.7,1.8-2.4,1.1-3.7c0,0,0,0,0,0l-0.1-0.1
		c-0.8-1.3-2.5-1.8-3.8-1l-19.5,11.2c-0.6,0.4-1.4,0.5-2.1,0.3c-0.7-0.2-1.3-0.6-1.7-1.3c-0.8-1.3-0.3-3,1-3.7l25.4-14.7
		c1.3-0.8,1.8-2.5,1-3.8l-0.1-0.1c-0.8-1.3-2.5-1.7-3.8-1c0,0,0,0,0,0l-27.8,16.1c-0.6,0.4-1.4,0.4-2.1,0.3
		c-0.7-0.2-1.3-0.7-1.7-1.3c-0.8-1.3-0.3-3,1-3.8l18-10.4c1.3-0.7,1.7-2.3,1.1-3.6c0,0,0-0.1-0.1-0.1l-0.1-0.1
		c-0.7-1.3-2.4-1.8-3.7-1.1c0,0,0,0,0,0l-15,8.6c-0.6,0.4-1.4,0.5-2.1,0.3c-0.7-0.2-1.3-0.6-1.7-1.3c-0.8-1.3-0.3-3,1-3.7
		c0,0,0,0,0,0l21.1-12.2c1.3-0.8,1.8-2.4,1-3.8l-0.1-0.1c-0.7-1.3-2.4-1.8-3.7-1c0,0,0,0,0,0l-32.6,18.8c-0.6,0.4-1.4,0.5-2.1,0.3
		c-0.7-0.2-1.3-0.6-1.7-1.3c-0.8-1.3-0.3-3,1-3.7c0,0,0,0,0,0l34.6-20c1.3-0.8,1.8-2.5,1-3.9l-0.1-0.1c-0.8-1.3-2.5-1.8-3.8-1
		l-27.2,15.7c-0.6,0.4-1.4,0.5-2.1,0.3c-1.5-0.4-2.3-1.9-1.9-3.4c0.2-0.7,0.6-1.3,1.2-1.6l21.1-12.2c1.3-0.8,1.8-2.4,1-3.7
		c0,0,0,0,0,0l-0.1-0.1c-0.8-1.3-2.4-1.8-3.8-1c0,0,0,0,0,0l-10.7,6.2c-0.6,0.4-1.4,0.5-2.1,0.3c-0.7-0.2-1.3-0.6-1.7-1.3
		c-0.8-1.3-0.3-3,1-3.7c0,0,0,0,0,0l12.9-7.4c1.3-0.8,1.7-2.5,0.9-3.8l-0.1-0.1c-0.7-1.3-2.3-1.7-3.5-1.1c0,0-0.1,0-0.1,0.1
		l-17.7,10.2c-0.6,0.4-1.4,0.4-2.1,0.2c-0.7-0.2-1.3-0.7-1.7-1.3c-0.8-1.3-0.3-3,1-3.8l13.9-8c1.3-0.8,1.8-2.4,1-3.8l-0.1-0.1
		c-0.4-0.7-0.5-1.6-0.2-2.4C1036.3,92,1062.9,101.1,1075.4,122.9z"/>
	<path class="st10" d="M1135.5,107.6L1135.5,107.6c-1.2-2-3.7-2.7-5.7-1.5c0,0,0,0,0,0l-24.6,14.2c-2,1.2-4.6,0.5-5.7-1.5l0,0
		c-1.2-2-0.5-4.6,1.5-5.7c0,0,0,0,0,0l11.5-6.6c2-1.2,2.7-3.7,1.5-5.7l0,0c-1.2-2-3.7-2.7-5.7-1.5l-54.5,31.4
		c-2,1.2-4.6,0.5-5.7-1.5l0,0c-1.2-2-0.5-4.6,1.5-5.7l29.1-16.8c2-1.2,2.7-3.7,1.5-5.7l0,0c-1.2-2-3.7-2.7-5.7-1.5c0,0,0,0,0,0
		l-110.3,63.7c-2,1.2-2.7,3.7-1.5,5.7l0,0c1.2,2,3.7,2.7,5.7,1.5l20.5-11.8c2-1.2,4.6-0.5,5.7,1.5l0,0c1.2,2,0.5,4.6-1.5,5.7
		l-29.8,17.2c-2,1.2-2.7,3.7-1.5,5.7l0,0c1.2,2,3.7,2.7,5.7,1.5l1.8-1.1c2-1.2,4.6-0.5,5.7,1.5l0,0c1.2,2,0.5,4.6-1.5,5.7l-15.7,9.1
		c-2,1.2-2.7,3.7-1.5,5.7l0,0c1.2,2,3.7,2.7,5.7,1.5l29.5-17c2-1.2,4.6-0.5,5.7,1.5l0,0c1.2,2,0.5,4.6-1.5,5.7l-11.5,6.6
		c-2,1.2-2.7,3.7-1.5,5.7l0,0c1.2,2,3.7,2.7,5.7,1.5l132.7-76.6c2-1.2,2.7-3.7,1.5-5.7l0,0c-1.2-2-3.7-2.7-5.7-1.5l-18.4,10.6
		c-2,1.2-4.6,0.5-5.7-1.5l0,0c-1.2-2-0.5-4.6,1.5-5.7l39.6-22.8C1136,112.2,1136.6,109.6,1135.5,107.6z"/>
	<g>
		<defs>
			<ellipse id="SVGID_1_" transform="matrix(0.866 -0.5 0.5 0.866 72.2652 527.7539)" cx="1020.9" cy="129" rx="79.3" ry="46.6"/>
		</defs>
		<clipPath id="SVGID_2_">
			<use xlink:href="#SVGID_1_"  style="overflow:visible;"/>
		</clipPath>
		<g class="st11">
			<path class="st8" d="M1075.4,122.9c13.4,23.1,6.3,52.7-16.1,67.2c-0.7,0.5-1.5,0.9-2.3,1.4c-24,14-54.7,5.9-68.7-18.1
				c-14-24-5.9-54.7,18.1-68.7c0.1-0.1,0.2-0.1,0.3-0.2c2-1.2,4.2-2.2,6.3-3.1C1036.4,92.1,1062.9,101.2,1075.4,122.9z"/>
			<path class="st9" d="M1075.4,122.9c13.3,23.1,6.3,52.7-16.1,67.2l-3.3,1.9c-0.6,0.4-1.4,0.5-2.1,0.3c-0.7-0.2-1.3-0.6-1.7-1.3
				c-0.8-1.3-0.3-3,1-3.7l3.3-1.9c1.3-0.8,1.8-2.4,1-3.7c0,0,0,0,0,0l-0.1-0.1c-0.7-1.3-2.3-1.8-3.6-1.1c0,0-0.1,0-0.1,0.1
				l-12.6,7.3c-0.6,0.4-1.4,0.4-2.1,0.3c-0.7-0.2-1.3-0.7-1.7-1.3c-0.8-1.3-0.3-3,1-3.8l16.4-9.4c1.3-0.7,1.8-2.4,1.1-3.7
				c0,0,0,0,0,0l-0.1-0.1c-0.8-1.3-2.5-1.8-3.8-1l-19.5,11.2c-0.6,0.4-1.4,0.5-2.1,0.3c-0.7-0.2-1.3-0.6-1.7-1.3
				c-0.8-1.3-0.3-3,1-3.7l25.4-14.7c1.3-0.8,1.8-2.5,1-3.8l-0.1-0.1c-0.8-1.3-2.5-1.7-3.8-1c0,0,0,0,0,0l-27.8,16.1
				c-0.6,0.4-1.4,0.4-2.1,0.3c-0.7-0.2-1.3-0.7-1.7-1.3c-0.8-1.3-0.3-3,1-3.8l18-10.4c1.3-0.7,1.7-2.3,1.1-3.6c0,0,0-0.1-0.1-0.1
				l-0.1-0.1c-0.7-1.3-2.4-1.8-3.7-1.1c0,0,0,0,0,0l-15,8.6c-0.6,0.4-1.4,0.5-2.1,0.3c-0.7-0.2-1.3-0.6-1.7-1.3
				c-0.8-1.3-0.3-3,1-3.7c0,0,0,0,0,0l21.1-12.2c1.3-0.8,1.8-2.4,1-3.8l-0.1-0.1c-0.7-1.3-2.4-1.8-3.7-1c0,0,0,0,0,0l-32.6,18.8
				c-0.6,0.4-1.4,0.5-2.1,0.3c-0.7-0.2-1.3-0.6-1.7-1.3c-0.8-1.3-0.3-3,1-3.7c0,0,0,0,0,0l34.6-20c1.3-0.8,1.8-2.5,1-3.9l-0.1-0.1
				c-0.8-1.3-2.5-1.8-3.8-1l-27.2,15.7c-0.6,0.4-1.4,0.5-2.1,0.3c-1.5-0.4-2.3-1.9-1.9-3.4c0.2-0.7,0.6-1.3,1.2-1.6l21.1-12.2
				c1.3-0.8,1.8-2.4,1-3.7c0,0,0,0,0,0l-0.1-0.1c-0.8-1.3-2.4-1.8-3.8-1c0,0,0,0,0,0l-10.7,6.2c-0.6,0.4-1.4,0.5-2.1,0.3
				c-0.7-0.2-1.3-0.6-1.7-1.3c-0.8-1.3-0.3-3,1-3.7c0,0,0,0,0,0l12.9-7.4c1.3-0.8,1.7-2.5,0.9-3.8l-0.1-0.1
				c-0.7-1.3-2.3-1.7-3.5-1.1c0,0-0.1,0-0.1,0.1l-17.7,10.2c-0.6,0.4-1.4,0.4-2.1,0.2c-0.7-0.2-1.3-0.7-1.7-1.3
				c-0.8-1.3-0.3-3,1-3.8l13.9-8c1.3-0.8,1.8-2.4,1-3.8l-0.1-0.1c-0.4-0.7-0.5-1.6-0.2-2.4C1036.3,92,1062.9,101.1,1075.4,122.9z"/>
		</g>
	</g>
	<path class="st5" d="M2083,0h-125l-414.2,239.1c-24.1,13.9-32.4,44.8-18.5,68.9l0,0c13.9,24.1,44.8,32.4,68.9,18.5L2083,44.4V0z"/>
	<path class="st7" d="M1843.5,108.9L1843.5,108.9c-1.9-3.2-6-4.3-9.2-2.5l-102.1,59c-3.2,1.8-7.3,0.7-9.2-2.5l0,0
		c-1.9-3.2-0.8-7.3,2.4-9.2c0,0,0,0,0,0l30.7-17.8c3.2-1.8,4.3-5.9,2.5-9.1c0,0,0,0,0,0l0,0c-1.9-3.2-6-4.3-9.2-2.5l-203.1,117.3
		c-22.5,13-30.2,41.7-17.2,64.2c0,0,0,0,0,0l0,0c13,22.5,41.7,30.2,64.2,17.2c0,0,0,0,0,0l220-127c3.2-1.9,4.3-6,2.5-9.2l0,0
		c-1.9-3.2-6-4.3-9.2-2.5l-16.6,9.6c-3.2,1.9-7.3,0.8-9.2-2.4c0,0,0,0,0,0l0,0c-1.8-3.2-0.7-7.3,2.5-9.2l43.3-25
		c3.2-1.8,4.3-5.9,2.5-9.1c0,0,0,0,0,0l0,0c-1.9-3.2-6-4.3-9.2-2.5l-29.2,16.9c-3.2,1.8-7.3,0.7-9.2-2.5l0,0
		c-1.8-3.2-0.7-7.3,2.5-9.2l56.9-32.8C1844.2,116.3,1845.3,112.2,1843.5,108.9C1843.5,108.9,1843.5,108.9,1843.5,108.9z"/>
	<path class="st3" d="M1594.5,282.7l92.8-53.6c1.2-0.7,1.6-2.2,0.9-3.4c0,0,0,0,0,0l-0.1-0.1c-0.7-1.2-2.2-1.6-3.4-0.9c0,0,0,0,0,0
		l-105.7,61c-1.2,0.7-2.7,0.3-3.4-0.9l0,0c-0.7-1.2-0.3-2.7,0.9-3.4c0,0,0,0,0,0l126.2-72.8c1.2-0.7,1.6-2.2,0.9-3.4c0,0,0,0,0,0
		l-0.1-0.1c-0.7-1.2-2.2-1.6-3.4-0.9c0,0,0,0,0,0L1570.7,279c-1.2,0.7-2.7,0.3-3.4-0.9l-0.1-0.1c-0.7-1.2-0.3-2.7,0.9-3.4
		c0,0,0,0,0,0l107.1-61.9c1.2-0.7,1.6-2.2,0.9-3.4c0,0,0,0,0,0l0,0c-0.7-1.2-2.2-1.6-3.4-0.9l-96.1,55.5c-1.2,0.7-2.7,0.3-3.4-0.9
		c0,0,0,0,0,0l-0.1-0.1c-0.7-1.2-0.3-2.7,0.9-3.4c0,0,0,0,0,0l76.5-44.1c1.2-0.7,1.6-2.2,0.9-3.4c0,0,0,0,0,0l0,0
		c-0.7-1.2-2.2-1.6-3.4-0.9l-65.1,37.6c-1.2,0.7-2.7,0.3-3.4-0.9c0,0,0,0,0,0l-0.1-0.1c-0.7-1.2-0.3-2.7,0.9-3.4l78.8-45.5
		c1.2-0.7,1.6-2.2,0.9-3.4l0,0c-0.7-1.2-2.2-1.6-3.4-0.9l-67.2,38.8c-1.2,0.7-2.7,0.3-3.4-0.9c0,0,0,0,0,0l-0.1-0.1
		c-0.7-1.2-0.3-2.7,0.9-3.4l16.8-9.7c1.2-0.7,1.6-2.2,0.9-3.4c0,0,0,0,0,0l0,0c-0.7-1.2-2.2-1.6-3.4-0.9c0,0,0,0,0,0l-53.4,30.8
		c-20.4,11.8-27.4,37.9-15.6,58.3c0,0,0,0,0,0l0,0c11.8,20.4,37.9,27.4,58.3,15.6c0,0,0,0,0,0l57.4-33.1c1.2-0.7,1.6-2.2,0.9-3.4
		c0,0,0,0,0,0V283c-0.7-1.2-2.2-1.6-3.4-0.9c0,0,0,0,0,0l-11.3,6.5c-1.2,0.7-2.7,0.3-3.4-0.9c0,0,0,0,0,0l0,0
		c-0.7-1.2-0.3-2.7,0.9-3.4l34.6-20c1.2-0.7,1.6-2.2,0.9-3.4l-0.1-0.1c-0.7-1.2-2.2-1.6-3.4-0.9c0,0,0,0,0,0l-47.7,27.6
		c-1.2,0.7-2.7,0.3-3.4-0.9c0,0,0,0,0,0l0,0c-0.7-1.2-0.3-2.7,0.9-3.4c0,0,0,0,0,0l61.2-35.3c1.2-0.7,1.6-2.2,0.9-3.4c0,0,0,0,0,0
		v-0.1c-0.7-1.2-2.2-1.6-3.4-0.9c0,0,0,0,0,0L1597,287c-1.2,0.7-2.7,0.3-3.4-0.9l0,0C1592.9,284.9,1593.3,283.4,1594.5,282.7
		C1594.5,282.7,1594.5,282.7,1594.5,282.7z"/>
	<path class="st3" d="M1721.9,191.6l49.5-28.6c1.2-0.7,2.7-0.3,3.4,0.9l0.1,0.1c0.7,1.2,0.3,2.7-0.9,3.4l-49.5,28.6
		c-1.2,0.7-2.7,0.3-3.4-0.9l-0.1-0.1C1720.3,193.8,1720.7,192.3,1721.9,191.6z"/>
	<path class="st3" d="M1681.1,238.4l12.5-7.2c1.2-0.7,2.7-0.3,3.4,0.9l0.1,0.1c0.7,1.2,0.3,2.7-0.9,3.4l-12.5,7.2
		c-1.2,0.7-2.7,0.3-3.4-0.9l-0.1-0.1C1679.5,240.6,1679.9,239.1,1681.1,238.4z"/>
	<path class="st3" d="M1702,226.3l4.4-2.5c1.2-0.7,2.7-0.3,3.4,0.9l0.1,0.1c0.7,1.2,0.3,2.7-0.9,3.4l-4.4,2.5
		c-1.2,0.7-2.7,0.3-3.4-0.9l-0.1-0.1C1700.4,228.5,1700.9,227,1702,226.3z"/>
	<path class="st3" d="M1694.2,219.2l21.2-12.2c1.2-0.7,2.7-0.3,3.4,0.9l0.1,0.1c0.7,1.2,0.3,2.7-0.9,3.4l-21.2,12.2
		c-1.2,0.7-2.7,0.3-3.4-0.9l-0.1-0.1C1692.6,221.4,1693,219.9,1694.2,219.2z"/>
	<path class="st3" d="M1682.9,202.6l29.8-17.2c1.2-0.7,2.7-0.3,3.4,0.9v0c0.7,1.2,0.3,2.7-0.9,3.4l-29.8,17.2
		c-1.2,0.7-2.7,0.3-3.4-0.9l0,0C1681.3,204.8,1681.7,203.3,1682.9,202.6z"/>
	<path class="st3" d="M1657.8,205.5l20.8-12c1.2-0.7,2.7-0.3,3.4,0.9v0c0.7,1.2,0.3,2.7-0.9,3.4l-20.8,12c-1.2,0.7-2.7,0.3-3.4-0.9
		v0C1656.2,207.7,1656.6,206.2,1657.8,205.5z"/>
	<path class="st3" d="M1721.3,180.4l5.3-3.1c1.2-0.7,2.7-0.3,3.4,0.9l0,0c0.7,1.2,0.3,2.7-0.9,3.4l-5.3,3.1
		c-1.2,0.7-2.7,0.3-3.4-0.9l0,0C1719.7,182.6,1720.2,181.1,1721.3,180.4z"/>
	<path class="st12" d="M679.9,296c22.6,39.2,10.6,89.2-27.3,113.8c-1.2,0.8-2.5,1.6-3.8,2.3c-40.7,23.5-92.6,9.5-116.1-31.2
		s-9.5-92.6,31.2-116.1C604.4,241.5,656.4,255.4,679.9,296z"/>
	<path class="st13" d="M679.9,296c22.6,39.2,10.6,89.2-27.3,113.8L647,413c-1.1,0.6-2.3,0.8-3.5,0.5c-1.2-0.3-2.2-1.1-2.8-2.2
		c-1.3-2.2-0.5-5.1,1.7-6.4c0,0,0,0,0,0l5.7-3.3c2.2-1.3,3-4.1,1.7-6.4l-0.1-0.2c-1.3-2.2-4.1-3-6.4-1.7c0,0,0,0,0,0l-21.4,12.3
		c-2.2,1.3-5.1,0.6-6.4-1.6c-1.3-2.2-0.6-5.1,1.6-6.4c0,0,0.1,0,0.1-0.1l27.7-16c2.2-1.3,3-4.1,1.7-6.4l-0.1-0.2
		c-1.3-2.2-4.1-3-6.4-1.7c0,0,0,0,0,0l-33,19c-2.2,1.3-5.1,0.5-6.4-1.7c-1.3-2.2-0.5-5.1,1.7-6.4l43-24.8c2.2-1.3,3-4.1,1.7-6.4
		c0,0,0,0,0,0l-0.1-0.2c-1.3-2.2-4.1-3-6.4-1.7l-47.1,27.3c-1.1,0.6-2.3,0.8-3.5,0.5c-1.2-0.3-2.2-1.1-2.8-2.2
		c-1.3-2.2-0.5-5.1,1.7-6.4c0,0,0,0,0,0l30.5-17.6c2.2-1.3,3-4.1,1.7-6.4c0,0,0,0,0,0l-0.1-0.2c-1.3-2.2-4.1-3-6.4-1.7L589.4,359
		c-1.1,0.6-2.3,0.8-3.5,0.5c-1.2-0.3-2.2-1.1-2.9-2.2c-1.3-2.2-0.5-5.1,1.7-6.4c0,0,0,0,0,0l35.8-20.7c2.2-1.3,3-4.1,1.7-6.4
		l-0.1-0.2c-1.3-2.2-4.1-3-6.4-1.7c0,0,0,0,0,0l-55.2,31.9c-2.2,1.3-5.1,0.5-6.4-1.7c-1.3-2.2-0.5-5.1,1.7-6.4l58.5-33.8
		c2.2-1.3,3-4.1,1.7-6.4c0,0,0,0,0,0l-0.1-0.2c-1.3-2.2-4.1-3-6.4-1.7c0,0,0,0,0,0l-46,26.6c-1.1,0.6-2.3,0.8-3.5,0.5
		c-1.2-0.3-2.2-1.1-2.8-2.2c-1.3-2.2-0.5-5.1,1.7-6.4c0,0,0,0,0,0l35.8-20.7c2.2-1.3,3-4.1,1.7-6.4l-0.1-0.2c-1.3-2.2-4.1-3-6.4-1.7
		c0,0,0,0,0,0l-18.1,10.5c-2.2,1.3-5.1,0.5-6.4-1.7c-1.3-2.2-0.5-5.1,1.7-6.4l21.8-12.6c2.2-1.3,3-4.1,1.7-6.4c0,0,0,0,0,0l-0.1-0.2
		c-1.3-2.2-4.1-3-6.4-1.7L554.2,292c-1.1,0.6-2.3,0.8-3.5,0.5c-2.5-0.7-4-3.2-3.3-5.7c0.3-1.2,1.1-2.2,2.2-2.8l23.6-13.6
		c2.2-1.3,3-4.1,1.7-6.3c0,0,0,0,0,0l-0.1-0.2c-0.7-1.3-0.8-2.8-0.3-4.1C613.7,243.8,658.7,259.3,679.9,296z"/>
	<path class="st14" d="M229.9,149L229.9,149c0.6,1.1,2.1,1.5,3.2,0.9c0,0,0,0,0,0l6.1-3.6c1.1-0.6,2.5-0.3,3.2,0.8c0,0,0,0,0,0l0,0
		c0.6,1.1,0.3,2.5-0.9,3.2l-11.4,6.6c-1.1,0.6-1.5,2.1-0.9,3.2l0,0c0.6,1.1,2.1,1.5,3.2,0.9l17.9-10.3c1.1-0.6,2.5-0.3,3.2,0.8
		c0,0,0,0,0,0l0,0c0.6,1.1,0.3,2.5-0.8,3.2c0,0,0,0,0,0L227,169.4c-1.1,0.6-1.5,2.1-0.9,3.2c0,0,0,0,0,0l0,0
		c0.6,1.1,2.1,1.5,3.2,0.9l27.7-15.9c1.1-0.6,2.5-0.3,3.2,0.8c0,0,0,0,0,0l0,0c0.6,1.1,0.3,2.5-0.8,3.2c0,0,0,0,0,0l-10.1,5.9
		c-1.1,0.6-1.5,2.1-0.9,3.2c0,0,0,0,0,0l0,0c0.6,1.1,2.1,1.5,3.2,0.9c0,0,0,0,0,0l141.3-81.6c7.8-4.5,50.3-37.5,45.9-45.3l0,0
		c-4.5-7.8-54.3,12.6-62.1,17.1l-145.8,84.2C229.6,146.4,229.2,147.8,229.9,149C229.9,149,229.9,149,229.9,149z"/>
	<path class="st14" d="M192.6,167.8l28.1-16.2c1.1-0.6,2.5-0.3,3.2,0.8v0c0.6,1.1,0.3,2.5-0.8,3.2l-28.1,16.2
		c-1.1,0.6-2.5,0.3-3.2-0.8l0,0C191.1,169.9,191.5,168.5,192.6,167.8z"/>
	<path class="st14" d="M211.9,178.1l5.1-2.9c1.1-0.6,2.5-0.3,3.2,0.8l0,0c0.6,1.1,0.3,2.5-0.8,3.2l-5.1,2.9
		c-1.1,0.6-2.5,0.3-3.2-0.8l0,0C210.4,180.2,210.8,178.8,211.9,178.1z"/>
	<path class="st14" d="M223.6,182.1l16.4-9.4c1.1-0.6,2.5-0.3,3.2,0.8v0c0.6,1.1,0.3,2.5-0.8,3.2l-16.4,9.4
		c-1.1,0.6-2.5,0.3-3.2-0.8v0C222.1,184.2,222.5,182.7,223.6,182.1z"/>
	<path class="st15" d="M295.2,116.6L295.2,116.6c0.6,1.1,2.1,1.5,3.2,0.9c0,0,0,0,0,0l16.2-9.3c1.1-0.6,2.5-0.3,3.2,0.8c0,0,0,0,0,0
		l0,0c0.6,1.1,0.3,2.5-0.8,3.2c0,0,0,0,0,0L293,125.9c-1.1,0.6-1.5,2.1-0.9,3.2c0,0,0,0,0,0l0,0c0.6,1.1,2.1,1.5,3.2,0.9
		c0,0,0,0,0,0l8.9-5.1c1.1-0.6,2.5-0.3,3.2,0.8c0,0,0,0,0,0l0,0c0.6,1.1,0.3,2.5-0.8,3.2c0,0,0,0,0,0l-12.9,7.5
		c-1.1,0.6-1.5,2.1-0.9,3.2c0,0,0,0,0,0l0,0c0.6,1.1,2.1,1.5,3.2,0.9c0,0,0,0,0,0l98.4-56.8c5.5-3.2,47.5-33.4,44.3-39l0,0
		c-3.2-5.5-50.4,15.7-55.9,18.9l-86.6,50C295,114,294.6,115.4,295.2,116.6C295.2,116.6,295.2,116.6,295.2,116.6z"/>
	<path class="st15" d="M280.2,144l4.2-2.4c1.1-0.6,2.5-0.3,3.2,0.8v0c0.6,1.1,0.3,2.5-0.8,3.2l-4.2,2.4c-1.1,0.6-2.5,0.3-3.2-0.8v0
		C278.8,146.1,279.1,144.7,280.2,144z"/>
	<path class="st15" d="M269.6,140.3l13.7-7.9c1.1-0.6,2.5-0.3,3.2,0.9v0c0.6,1.1,0.3,2.5-0.9,3.2l-13.7,7.9
		c-1.1,0.6-2.5,0.3-3.2-0.9l0,0C268.1,142.4,268.5,140.9,269.6,140.3z"/>
	<path class="st15" d="M251.4,139.2l34-19.6c1.1-0.6,2.5-0.3,3.2,0.8l0,0c0.6,1.1,0.3,2.5-0.8,3.2l-34,19.6
		c-1.1,0.6-2.5,0.3-3.2-0.8h0C249.9,141.3,250.3,139.9,251.4,139.2z"/>
	<path class="st16" d="M365.3,81.5L365.3,81.5c0.6,1.1,2,1.5,3.2,0.9c0,0,0,0,0,0l12.3-7.1c1.1-0.6,2.5-0.3,3.2,0.8c0,0,0,0,0,0
		l0.1,0.2c0.6,1.1,0.3,2.5-0.8,3.2c0,0,0,0,0,0l-7.4,4.3c-1.1,0.6-1.5,2.1-0.8,3.2l0,0c0.6,1.1,2.1,1.5,3.2,0.8L396.5,77
		c3.4-1.9,44-29,42-32.4l0,0c-1.9-3.4-45.7,18.3-49.1,20.2l-23.4,13.5C365,79,364.6,80.4,365.3,81.5z"/>
	<path class="st16" d="M360.5,92.4l4.9-2.8c1.1-0.6,2.5-0.3,3.2,0.8l0,0c0.6,1.1,0.3,2.5-0.8,3.2l-4.9,2.8c-1.1,0.6-2.5,0.3-3.2-0.8
		l0,0C359,94.5,359.4,93,360.5,92.4z"/>
	<path class="st16" d="M321.9,114.7l28.2-16.3c1.1-0.6,2.5-0.3,3.2,0.8l0,0c0.6,1.1,0.3,2.5-0.8,3.2l-28.2,16.3
		c-1.1,0.6-2.5,0.3-3.2-0.8l0,0C320.4,116.8,320.8,115.4,321.9,114.7z"/>
	<path class="st16" d="M335.3,96.1l19.6-11.3c1.1-0.6,2.5-0.3,3.2,0.8l0,0c0.6,1.1,0.3,2.5-0.8,3.2l-19.6,11.3
		c-1.1,0.6-2.5,0.3-3.2-0.8l0,0C333.9,98.1,334.2,96.7,335.3,96.1z"/>
	<circle class="st17" cx="308.1" cy="460.3" r="307.6"/>
	<g>
		<defs>
			<circle id="SVGID_3_" cx="308.1" cy="460.3" r="307.6"/>
		</defs>
		<clipPath id="SVGID_4_">
			<use xlink:href="#SVGID_3_"  style="overflow:visible;"/>
		</clipPath>
		<g class="st18">
			<path class="st12" d="M675.4,286.3c23.7,38.6,13,88.9-24.3,114.5c-1.2,0.8-2.5,1.7-3.8,2.4c-40,24.5-92.4,11.9-116.9-28.1
				c-24.5-40-11.9-92.4,28.1-116.9C598.6,233.8,650.9,246.3,675.4,286.3z"/>
			<path class="st13" d="M675.4,286.3c23.7,38.6,13,88.9-24.3,114.5l-5.4,3.3c-2.2,1.3-5.1,0.7-6.4-1.5c-1.3-2.2-0.7-5.1,1.5-6.4
				l5.6-3.4c2.2-1.3,2.9-4.2,1.5-6.4l-0.1-0.2c-1.3-2.2-4.2-2.9-6.4-1.5l-21.1,12.9c-2.2,1.3-5.1,0.7-6.4-1.5
				c-1.3-2.2-0.7-5.1,1.5-6.4l27.3-16.7c2.2-1.3,2.9-4.2,1.5-6.4c0,0,0,0,0,0l-0.1-0.2c-1.3-2.2-4.2-2.9-6.4-1.5l-32.4,19.9
				c-1.1,0.7-2.3,0.9-3.5,0.6c-2.5-0.6-4.1-3.1-3.5-5.6c0.3-1.2,1-2.3,2.1-2.9l42.3-25.9c2.2-1.3,2.9-4.2,1.5-6.4c0,0,0,0,0,0
				l-0.1-0.2c-1.3-2.2-4.2-2.9-6.4-1.5L591.4,371c-2.2,1.3-5.1,0.7-6.4-1.5c-1.3-2.2-0.7-5.1,1.5-6.4l30.1-18.4
				c2.2-1.3,2.9-4.2,1.6-6.4c0,0,0,0,0,0L618,338c-1.3-2.2-4.2-2.9-6.4-1.5c0,0,0,0,0,0l-24.9,15.3c-2.2,1.3-5.1,0.7-6.4-1.5
				c-1.3-2.2-0.7-5.1,1.5-6.4l35.2-21.6c2.2-1.3,2.9-4.2,1.5-6.4c0,0,0,0,0,0l-0.1-0.2c-1.4-2.2-4.2-2.9-6.4-1.5l-54.4,33.3
				c-1.1,0.7-2.3,0.9-3.5,0.6c-2.5-0.6-4.1-3.1-3.5-5.6c0.3-1.2,1-2.3,2.1-2.9l57.6-35.3c2.2-1.3,2.9-4.2,1.5-6.4l-0.1-0.2
				c-1.3-2.2-4.2-2.9-6.4-1.5c0,0,0,0,0,0L560,323.7c-2.2,1.3-5.1,0.7-6.4-1.5c-1.3-2.2-0.7-5.1,1.5-6.4l35.2-21.6
				c2.2-1.3,2.9-4.2,1.5-6.4l-0.1-0.2c-1.3-2.2-4.2-2.9-6.4-1.5l-17.8,10.9c-2.2,1.3-5.1,0.7-6.4-1.5c-1.3-2.2-0.7-5.1,1.5-6.4
				l21.5-13.2c2.2-1.3,2.9-4.2,1.5-6.4c0,0,0,0,0,0l-0.1-0.2c-1.3-2.2-4.2-2.9-6.4-1.5l-29.4,18c-2.2,1.3-5.1,0.7-6.4-1.5
				c-1.3-2.2-0.7-5.1,1.5-6.4l23.2-14.2c2.2-1.3,2.9-4.2,1.6-6.4c0,0,0,0,0,0l-0.1-0.2c-0.8-1.2-0.9-2.8-0.4-4.1
				C608,235.9,653.3,250.2,675.4,286.3z"/>
			<path class="st14" d="M221.8,151.1L221.8,151.1c0.7,1.1,2.1,1.4,3.2,0.8c0,0,0,0,0,0l6-3.7c1.1-0.7,2.5-0.3,3.2,0.8c0,0,0,0,0,0
				l0,0c0.7,1.1,0.3,2.5-0.8,3.2l-11.2,6.9c-1.1,0.7-1.4,2.1-0.8,3.2c0,0,0,0,0,0l0,0c0.7,1.1,2.1,1.4,3.2,0.8c0,0,0,0,0,0
				l17.6-10.8c1.1-0.7,2.5-0.3,3.2,0.8c0,0,0,0,0,0l0,0c0.7,1.1,0.3,2.5-0.8,3.2c0,0,0,0,0,0l-25.2,15.5c-1.1,0.7-1.4,2.1-0.8,3.2
				l0,0c0.7,1.1,2.1,1.4,3.2,0.8c0,0,0,0,0,0l27.1-16.7c1.1-0.7,2.5-0.3,3.2,0.8c0,0,0,0,0,0l0,0c0.7,1.1,0.3,2.5-0.8,3.2
				c0,0,0,0,0,0l-10,6.1c-1.1,0.7-1.4,2.1-0.8,3.2c0,0,0,0,0,0l0,0c0.7,1.1,2.1,1.4,3.2,0.8c0,0,0,0,0,0l139.2-85.3
				c7.7-4.7,49.4-38.8,44.7-46.4l0,0c-4.7-7.7-54,14-61.7,18.7l-143.5,88C221.5,148.6,221.1,150,221.8,151.1z"/>
			<path class="st14" d="M185,171l27.7-16.9c1.1-0.7,2.5-0.3,3.2,0.8l0,0c0.7,1.1,0.3,2.5-0.8,3.2l-27.7,16.9
				c-1.1,0.7-2.5,0.3-3.2-0.8l0,0C183.5,173.1,183.9,171.6,185,171z"/>
			<path class="st14" d="M204.5,180.7l5-3.1c1.1-0.7,2.5-0.3,3.2,0.8v0c0.7,1.1,0.3,2.5-0.8,3.2l-5,3.1c-1.1,0.7-2.5,0.3-3.2-0.8v0
				C203.1,182.8,203.4,181.4,204.5,180.7z"/>
			<path class="st14" d="M216.3,184.4l16.1-9.9c1.1-0.7,2.5-0.3,3.2,0.8v0c0.7,1.1,0.3,2.5-0.8,3.2l-16.1,9.9
				c-1.1,0.7-2.5,0.3-3.2-0.8l0,0C214.9,186.5,215.2,185.1,216.3,184.4z"/>
		</g>
	</g>
	<g class="st19">
		<circle class="st20" cx="308.1" cy="460.3" r="307.6"/>
		<g>
			<g class="st21">
				<circle class="st20" cx="308.1" cy="460.3" r="307.6"/>
			</g>
		</g>
	</g>
	<circle class="st3" cx="308.1" cy="460.3" r="259.2"/>
	<g>
		<defs>
			<circle id="SVGID_5_" cx="308.1" cy="460.3" r="259.2"/>
		</defs>
		<clipPath id="SVGID_6_">
			<use xlink:href="#SVGID_5_"  style="overflow:visible;"/>
		</clipPath>
		<g class="st22">
			<path class="st23" d="M383.9,117.3l-161.1,93c-2.5,1.4-3.3,4.6-1.9,7.1c0,0,0,0,0,0l0,0c1.4,2.5,0.6,5.6-1.9,7.1c0,0,0,0,0,0
				l-28.9,16.7c-2.5,1.4-3.3,4.6-1.9,7.1c1.4,2.5,4.6,3.3,7.1,1.9l49-28.3c2.5-1.4,5.7-0.6,7.1,1.9l0,0c1.4,2.5,0.6,5.6-1.9,7.1
				c0,0,0,0,0,0L230.2,242c-2.5,1.4-3.3,4.6-1.9,7.1c1.4,2.5,4.6,3.3,7.1,1.9l39.4-22.8c2.5-1.4,5.6-0.6,7.1,1.9c0,0,0,0,0,0l0,0
				c1.4,2.5,0.6,5.6-1.9,7.1c0,0,0,0,0,0l-18.5,10.7c-2.5,1.4-3.3,4.6-1.9,7.1c0,0,0,0,0,0l0,0c1.4,2.5,4.6,3.3,7.1,1.9c0,0,0,0,0,0
				l5.2-3c2.5-1.4,5.7-0.6,7.1,1.9c1.4,2.5,0.6,5.7-1.9,7.1l-22.1,12.8c-2.5,1.4-3.3,4.6-1.9,7.1c0,0,0,0,0,0l0,0
				c1.4,2.5,4.6,3.3,7.1,1.9l52.7-30.4c2.5-1.4,5.7-0.6,7.1,1.9c1.4,2.5,0.6,5.7-1.9,7.1l0,0l-40.5,23.4c-2.5,1.4-3.3,4.6-1.9,7.1
				c0,0,0,0,0,0l0,0c1.4,2.5,4.6,3.3,7.1,1.9c0,0,0,0,0,0l32-18.4c2.5-1.4,5.7-0.6,7.1,1.9l0,0c1.4,2.5,0.6,5.6-1.9,7.1c0,0,0,0,0,0
				l-46.9,27.1c-2.5,1.4-3.3,4.6-1.9,7.1s4.6,3.3,7.1,1.9l0,0l51.2-29.6c2.5-1.4,5.6-0.6,7.1,1.9c0,0,0,0,0,0l0,0
				c1.4,2.5,0.6,5.6-1.9,7.1c0,0,0,0,0,0l-26.3,15.2c-2.5,1.4-3.3,4.6-1.9,7.1s4.6,3.3,7.1,1.9l41.4-23.9c2.5-1.4,5.6-0.6,7.1,1.9
				c0,0,0,0,0,0l0,0c1.4,2.5,0.6,5.6-1.9,7.1c0,0,0,0,0,0l-77.4,44.7c-2.5,1.4-3.3,4.6-1.9,7.1c0,0,0,0,0,0l0,0
				c1.4,2.5,4.6,3.3,7.1,1.9c0,0,0,0,0,0l48-27.7c2.5-1.4,5.7-0.6,7.1,1.9s0.6,5.7-1.9,7.1L321.1,357c-2.5,1.4-3.3,4.6-1.9,7.1
				c0,0,0,0,0,0l0,0c1.4,2.5,4.6,3.3,7.1,1.9l26.1-15c2.5-1.4,5.7-0.6,7.1,1.9c1.4,2.5,0.6,5.7-1.9,7.1l-33.7,19.4
				c-2.5,1.4-3.3,4.6-1.9,7.1l0,0c1.4,2.5,4.6,3.3,7.1,1.9c0,0,0,0,0,0l72.9-42.1c2.5-1.4,5.6-0.6,7.1,1.9c0,0,0,0,0,0l0,0
				c1.4,2.5,0.6,5.7-1.9,7.1l-48.7,28.1c-2.5,1.4-3.3,4.6-1.9,7.1c0,0,0,0,0,0l0,0c1.4,2.5,4.6,3.3,7.1,1.9c0,0,0,0,0,0l25.3-14.6
				c2.5-1.4,5.7-0.6,7.1,1.9l0,0c1.4,2.5,0.6,5.6-1.9,7.1c0,0,0,0,0,0l-83.1,48c-2.5,1.4-3.3,4.6-1.9,7.1s4.6,3.3,7.1,1.9l93.1-53.8
				c2.5-1.4,5.6-0.6,7.1,1.9l0,0c1.4,2.5,0.6,5.6-1.9,7.1c0,0,0,0,0,0L379,419.4c-2.5,1.4-3.3,4.6-1.9,7.1l0,0
				c1.4,2.5,4.6,3.3,7.1,1.9l30-17.3c2.5-1.4,5.6-0.6,7.1,1.9c0,0,0,0,0,0l0,0c1.4,2.5,0.6,5.6-1.9,7.1c0,0,0,0,0,0L375,445.6
				c-2.5,1.4-3.3,4.6-1.9,7.1l0,0c1.4,2.5,4.6,3.3,7.1,1.9c0,0,0,0,0,0l56.2-32.4c2.5-1.4,5.7-0.6,7.1,1.9s0.6,5.7-1.9,7.1l0,0
				l-36.8,21.2c-2.5,1.4-3.3,4.6-1.9,7.1c0,0,0,0,0,0l0,0c1.4,2.5,4.6,3.3,7.1,1.9c0,0,0,0,0,0l34.4-19.9c2.5-1.4,5.7-0.6,7.1,1.9
				l0,0c1.4,2.5,0.6,5.7-1.9,7.1l-46.8,27c-2.5,1.4-3.3,4.6-1.9,7.1l0,0c1.4,2.5,4.6,3.3,7.1,1.9l24.1-13.9c2.5-1.4,5.6-0.6,7.1,1.9
				c0,0,0,0,0,0l0,0c1.4,2.5,0.6,5.6-1.9,7.1c0,0,0,0,0,0l-43.4,25.1c-2.5,1.4-3.3,4.6-1.9,7.1c1.4,2.5,4.6,3.3,7.1,1.9l35.5-20.5
				c2.5-1.4,5.6-0.6,7.1,1.9c0,0,0,0,0,0l0,0c1.4,2.5,0.6,5.6-1.9,7.1c0,0,0,0,0,0l-46.8,27c-2.5,1.4-3.3,4.6-1.9,7.1c0,0,0,0,0,0
				l0,0c1.4,2.5,4.6,3.3,7.1,1.9c0,0,0,0,0,0l61.5-35.5c2.5-1.4,5.6-0.6,7.1,1.9c0,0,0,0,0,0l0,0c1.4,2.5,0.6,5.6-1.9,7.1
				c0,0,0,0,0,0l-31.7,18.3c-2.5,1.4-3.3,4.6-1.9,7.1c0,0,0,0,0,0l0,0c1.4,2.5,4.6,3.3,7.1,1.9c0,0,0,0,0,0l58-33.5
				c2.5-1.4,5.7-0.6,7.1,1.9c1.4,2.5,0.6,5.7-1.9,7.1l0,0l-95.7,55.3c-2.5,1.4-3.3,4.6-1.9,7.1c0,0,0,0,0,0l0,0
				c1.4,2.5,4.6,3.3,7.1,1.9c0,0,0,0,0,0l83.3-48.1l0,0c2.1-1.2,5.7-0.6,7.2,1.8c1.4,2.5,0.6,5.6-1.9,7.1c0,0,0,0,0,0l-57.9,33.4
				c-2.5,1.4-3.3,4.6-1.9,7.1c1.4,2.5,4.6,3.3,7.1,1.9l0,0l36.5-21.1c2.5-1.4,5.6-0.6,7.1,1.9l0,0c1.4,2.5,0.6,5.7-1.9,7.1L417,613
				c-2.5,1.4-3.3,4.6-1.9,7.1c1.4,2.5,4.6,3.3,7.1,1.9l0,0l80.6-46.5c2.5-1.4,5.6-0.6,7.1,1.9c0,0,0,0,0,0l0,0
				c1.4,2.5,1.1,5.3-1.8,7h0l-58,33.5c-2.5,1.4-3.3,4.6-1.9,7.1c1.4,2.5,4.6,3.3,7.1,1.9l51.4-29.7c2.5-1.4,5.6-0.6,7.1,1.9
				c0,0,0,0,0,0l0,0c1.4,2.5,0.6,5.6-1.9,7.1c0,0,0,0,0,0l-47.5,27.4c-2.5,1.4-3.3,4.6-1.9,7.1c1.4,2.5,4.6,3.3,7.1,1.9l0,0
				l35.8-20.7c2.5-1.4,5.6-0.6,7.1,1.9c0,0,0,0,0,0l0,0c1.4,2.5,0.6,5.6-1.9,7.1c0,0,0,0,0,0l-33.7,19.4c-2.5,1.4-3.3,4.6-1.9,7.1
				c1.4,2.5,4.6,3.3,7.1,1.9l161.1-93c2.5-1.4,3.3-4.6,1.9-7.1l-2.6-4.5l-5.2-9l-5.2-9l-5.2-9l-2.6-4.5l-5.2-9l-2.6-4.5l-5.2-9
				l-5.2-9l-5.2-9l-2.6-4.5l-5.2-9l-2.6-4.5l0,0l-5.2-9l-5.2-9l-5.2-9l-5.2-9l-5.2-9l-5.2-9l-5.2-9l-5.2-9l-5.2-9l-5.2-9l-5.2-9
				l-5.2-9l-5.2-9l-5.2-9l-5.2-9l-5.2-9l-5.2-9l-5.2-9l-5.2-9l-5.2-9l-5.2-9l-5.2-9l-5.2-9l-5.2-9l-5.2-9l-5.2-9l-5.2-9l-5.2-9
				l-5.2-9l-5.2-9l-5.2-9l-5.2-9l-5.2-9l-5.2-9l-5.2-9l-5.2-9l-5.2-9l-5.2-9l-2.6-4.5C389.2,116.2,386.1,115.7,383.9,117.3z"/>
			<path class="st4" d="M433.3,88.7l-161.1,93c-2.5,1.4-3.3,4.6-1.9,7.1l0,0c1.4,2.5,0.6,5.6-1.9,7.1c0,0,0,0,0,0l-28.8,16.6
				c-2.5,1.4-3.3,4.6-1.9,7.1c1.4,2.5,4.6,3.3,7.1,1.9l63.9-36.9c2.5-1.4,5.6-0.6,7.1,1.9c0,0,0,0,0,0l0,0c1.4,2.5,0.6,5.6-1.9,7.1
				c0,0,0,0,0,0l-48.4,27.9c-2.5,1.4-3.3,4.6-1.9,7.1c1.4,2.5,4.6,3.3,7.1,1.9l53.7-31c2.5-1.4,5.6-0.6,7.1,1.9c0,0,0,0,0,0l0,0
				c1.4,2.5,0.6,5.6-1.9,7.1c0,0,0,0,0,0l-40.9,23.6c-2.5,1.4-3.3,4.6-1.9,7.1c0,0,0,0,0,0l0,0c1.4,2.5,4.6,3.3,7.1,1.9c0,0,0,0,0,0
				l51.5-29.7c2.5-1.4,5.7-0.6,7.1,1.9s0.6,5.7-1.9,7.1l-54.6,31.5c-2.5,1.4-3.3,4.6-1.9,7.1l0,0c1.4,2.5,4.6,3.3,7.1,1.9
				c0,0,0,0,0,0l60.7-35c2.5-1.4,5.7-0.6,7.1,1.9c1.4,2.5,0.6,5.7-1.9,7.1l-20.8,12c-2.5,1.4-3.3,4.6-1.9,7.1l0,0
				c1.4,2.5,4.6,3.3,7.1,1.9l25.4-14.6c2.5-1.4,5.6-0.6,7.1,1.9c0,0,0,0,0,0l0,0c1.4,2.5,0.6,5.6-1.9,7.1c0,0,0,0,0,0l-57.4,33.2
				c-2.5,1.4-3.3,4.6-1.9,7.1s4.6,3.3,7.1,1.9l44.6-25.7c2.5-1.4,5.7-0.6,7.1,1.9s0.6,5.7-1.9,7.1l0,0l-53.5,30.9
				c-2.5,1.4-3.3,4.6-1.9,7.1c0,0,0,0,0,0l0,0c1.4,2.5,4.6,3.3,7.1,1.9c0,0,0,0,0,0l46-26.5c2.5-1.4,5.6-0.6,7.1,1.9c0,0,0,0,0,0
				l0,0c1.4,2.5,0.6,5.6-1.9,7.1c0,0,0,0,0,0L364.8,308c-2.5,1.4-3.3,4.6-1.9,7.1c0,0,0,0,0,0l0,0c1.4,2.5,4.6,3.3,7.1,1.9
				c0,0,0,0,0,0l33.7-19.4c2.5-1.4,5.7-0.6,7.1,1.9s0.6,5.7-1.9,7.1l-55.3,32c-2.5,1.4-3.3,4.6-1.9,7.1c1.4,2.5,4.6,3.3,7.1,1.9
				l51.2-29.6c2.5-1.4,5.6-0.6,7.1,1.9c0,0,0,0,0,0l0,0c1.3,2.4,0.4,5.5-1.9,6.9l-20.2,11.7c-2.5,1.4-3.3,4.6-1.9,7.1c0,0,0,0,0,0
				l0,0c1.4,2.5,4.6,3.3,7.1,1.9c0,0,0,0,0,0l54-31.2c2.5-1.4,5.6-0.6,7.1,1.9c0,0,0,0,0,0l0,0c1.4,2.5,0.6,5.6-1.9,7.1c0,0,0,0,0,0
				l-68.7,39.7c-2.5,1.4-3.3,4.6-1.9,7.1l0,0c1.4,2.5,4.6,3.3,7.1,1.9l58.3-33.6c2.5-1.4,5.6-0.6,7.1,1.9c0,0,0,0,0,0l0,0
				c1.4,2.5,0.6,5.6-1.9,7.1c0,0,0,0,0,0l-74,42.7c-2.5,1.4-3.3,4.6-1.9,7.1l0,0c1.4,2.5,4.6,3.3,7.1,1.9l58-33.5
				c2.5-1.4,5.6-0.6,7.1,1.9c0,0,0,0,0,0l0,0c1.4,2.5,0.6,5.6-1.9,7.1c0,0,0,0,0,0l-25.9,14.9c-2.5,1.4-3.3,4.6-1.9,7.1l0,0
				c1.4,2.5,4.6,3.3,7.1,1.9c0,0,0,0,0,0l57.7-33.3c2.5-1.4,5.7-0.6,7.1,1.9l0,0c1.4,2.5,0.6,5.6-1.9,7.1c0,0,0,0,0,0l-52,30
				c-2.5,1.4-3.3,4.6-1.9,7.1c0,0,0,0,0,0l0,0c1.4,2.5,4.6,3.3,7.1,1.9c0,0,0,0,0,0l44.1-25.5c2.5-1.4,5.7-0.6,7.1,1.9
				s0.6,5.7-1.9,7.1l-34.4,19.8c-2.5,1.4-3.3,4.6-1.9,7.1l0,0c1.4,2.5,4.6,3.3,7.1,1.9l39.8-23c2.5-1.4,5.6-0.6,7.1,1.9c0,0,0,0,0,0
				l0,0c1.4,2.5,0.6,5.6-1.8,7.1c0,0,0,0-0.1,0l-24.8,14.4c-2.5,1.4-3.3,4.6-1.9,7.1c0,0,0,0,0,0l0,0c1.4,2.5,4.6,3.3,7.1,1.9
				c0,0,0,0,0,0l31.1-17.9c2.5-1.4,5.6-0.6,7.1,1.9c0,0,0,0,0,0l0,0c1.4,2.5,0.6,5.7-1.9,7.1l-67.7,39.1c-2.5,1.4-3.3,4.6-1.9,7.1
				s4.6,3.3,7.1,1.9l85.2-49.2c2.5-1.4,5.6-0.6,7.1,1.9c0,0,0,0,0,0l0,0c1.4,2.5,0.6,5.6-1.9,7.1c0,0,0,0,0,0l-126,72.8
				c-2.5,1.4-3.3,4.6-1.9,7.1l0,0c1.4,2.5,4.6,3.3,7.1,1.9l71.9-41.5c2.5-1.4,5.7-0.6,7.1,1.9l0,0c1.4,2.5,0.6,5.6-1.9,7.1
				l-40.1,23.1c-2.5,1.4-3.3,4.6-1.9,7.1c0,0,0,0,0,0l0,0c1.4,2.5,4.6,3.3,7.1,1.9c0,0,0,0,0,0l24.6-14.2c2.5-1.4,5.7-0.6,7.1,1.9
				s0.6,5.7-1.9,7.1l0,0l-20.5,11.8c-2.5,1.4-3.3,4.6-1.9,7.1c0,0,0,0,0,0l0,0c1.4,2.5,4.6,3.3,7.1,1.9c0,0,0,0,0,0l26.4-15.3l0,0
				c2.5-1.3,5.6-0.5,7.2,1.8l0,0c1.4,2.5,0.6,5.6-1.9,7.1l-45.8,26.4c-2.5,1.4-3.3,4.6-1.9,7.1l0,0c1.4,2.5,4.6,3.3,7.1,1.9
				c0,0,0,0,0,0l50.7-29.3c2.5-1.4,5.7-0.6,7.1,1.9l0,0c1.4,2.5,0.6,5.6-1.9,7.1c0,0,0,0,0,0l-76.7,44.3c-2.5,1.4-3.3,4.6-1.9,7.1
				c0,0,0,0,0,0l0,0c1.4,2.5,4.6,3.3,7.1,1.9c0,0,0,0,0,0l78.1-45.1c2.5-1.4,5.6-0.6,7.1,1.9c0,0,0,0,0,0l0,0
				c1.4,2.5,0.6,5.7-1.9,7.1l-84.9,49c-2.5,1.4-3.3,4.6-1.9,7.1c0,0,0,0,0,0l0,0c1.4,2.5,4.6,3.3,7.1,1.9c0,0,0,0,0,0l55.9-32.3
				c2.5-1.4,5.7-0.6,7.1,1.9l0,0c1.4,2.5,0.6,5.7-1.9,7.1l-30.1,17.4c-2.5,1.4-3.3,4.6-1.9,7.1c0,0,0,0,0,0l0,0
				c1.4,2.5,4.6,3.3,7.1,1.9c0,0,0,0,0,0l43-24.8c2.5-1.4,5.6-0.6,7.1,1.9c0,0,0,0,0,0l0,0c1.4,2.5,0.6,5.6-1.9,7.1c0,0,0,0,0,0
				l-31.4,18.1c-2.5,1.4-3.3,4.6-1.9,7.1c0,0,0,0,0,0l0,0c1.4,2.5,4.6,3.3,7.1,1.9c0,0,0,0,0,0l161.1-93c2.5-1.4,3.3-4.6,1.9-7.1
				c0,0,0,0,0,0l-2.6-4.5l-5.2-9l-5.2-9l-5.2-9l-5.2-9l-5.2-9l-5.2-9l-5.2-9l-5.2-9l-2.6-4.5l-5.2-9l-2.6-4.3l-5.2-9l-5.2-9l-5.2-9
				l-5.2-9l-5.2-9l-5.2-9l-5.2-9l-5.2-9l-5.2-9l-5.2-9l-5.2-9l-5.2-9l-5.2-9l-5.2-9l-5.2-9l-5.2-9l-5.2-9l-5.2-9l-5.2-9l-5.2-9
				l-5.2-9l-5.2-9l-5.2-9l-5.2-9l-5.2-9l-5.2-9l-5.2-9l-5.2-9l-5.2-9l-5.2-9l-5.2-9l-5.2-9l-5.2-9l-5.2-9l-5.2-9l-5.2-9l-5.2-9
				l-5.2-9l-2.6-4.5C438.7,87.6,435.6,87.1,433.3,88.7z"/>
			<path class="st24" d="M446.4,643.9l-56,32.3c-2.5,1.4-5.6,0.6-7.1-1.9c0,0,0,0,0,0l0,0c-1.4-2.5-0.6-5.7,1.9-7.1l38.4-22.2
				c2.5-1.4,3.3-4.6,1.9-7.1c-1.4-2.5-4.6-3.3-7.1-1.9l-47,27.1c-2.5,1.4-5.7,0.6-7.1-1.9c-1.4-2.5-0.6-5.7,1.9-7.1l21.6-12.5
				c2.5-1.4,3.3-4.6,1.9-7.1c0,0,0,0,0,0l0,0c-1.4-2.5-4.6-3.3-7.1-1.9L328.4,664c-2.5,1.4-5.6,0.6-7.1-1.9c0,0,0,0,0,0l0,0
				c-1.4-2.5-0.6-5.6,1.9-7.1c0,0,0,0,0,0l80.6-46.5c2.5-1.4,3.3-4.6,1.9-7.1c-1.4-2.5-4.6-3.3-7.1-1.9l-58.6,34
				c-2.5,1.4-5.7,0.5-7.1-2c-1.3-2.4-0.6-5.4,1.8-6.9l0,0l14-8.1c2.5-1.4,3.3-4.6,1.9-7.1c0,0,0,0,0,0l0,0c-1.4-2.5-4.6-3.3-7.1-1.9
				c0,0,0,0,0,0L266,652.2c-2.5,1.4-5.7,0.6-7.1-1.9c-1.4-2.5-0.6-5.7,1.9-7.1l88.6-51.2c2.5-1.4,3.3-4.6,1.9-7.1c0,0,0,0,0,0l0,0
				c-1.4-2.5-4.6-3.3-7.1-1.9l-58.5,33.7c-2.5,1.4-5.6,0.6-7.1-1.9c0,0,0,0,0,0l0,0c-1.4-2.5-0.6-5.7,1.9-7.1l16.8-9.7
				c2.5-1.4,3.3-4.6,1.9-7.1c0,0,0,0,0,0l0,0c-1.4-2.5-4.6-3.3-7.1-1.9c0,0,0,0,0,0L256.3,610c-2.5,1.4-5.6,0.6-7.1-1.9c0,0,0,0,0,0
				l0,0c-1.4-2.5-0.6-5.6,1.9-7.1c0,0,0,0,0,0l53.6-30.9c2.5-1.4,3.3-4.6,1.9-7.1c-1.4-2.5-4.6-3.3-7.1-1.9l0,0l-45.3,26.1
				c-2.5,1.4-5.6,0.6-7.1-1.9c0,0,0,0,0,0l0,0c-1.4-2.5-0.6-5.6,1.9-7.1c0,0,0,0,0,0l20.6-11.9c2.5-1.4,3.3-4.6,1.9-7.1c0,0,0,0,0,0
				l0,0c-1.4-2.5-4.6-3.3-7.1-1.9c0,0,0,0,0,0l-16.5,9.5c-2.5,1.4-5.6,0.6-7.1-1.9l0,0c-1.4-2.5-0.6-5.7,1.9-7.1l61.5-35.5
				c2.5-1.4,3.3-4.6,1.9-7.1c0,0,0,0,0,0l0,0c-1.4-2.5-4.6-3.3-7.1-1.9l-46.8,27c-2.5,1.4-5.7,0.6-7.1-1.9c-1.4-2.5-0.6-5.7,1.9-7.1
				l14.8-8.5c2.5-1.4,3.3-4.6,1.9-7.1c0,0,0,0,0,0l0,0c-1.4-2.5-4.6-3.3-7.1-1.9l-36.9,21.3c-2.5,1.4-5.6,0.6-7.1-1.9c0,0,0,0,0,0
				l0,0c-1.4-2.5-0.6-5.6,1.9-7.1c0,0,0,0,0,0l5.7-3.3c2.5-1.4,3.3-4.6,1.9-7.1l0,0c-1.4-2.5-4.6-3.3-7.1-1.9c0,0,0,0,0,0
				l-18.2,10.5c-2.5,1.4-5.7,0.6-7.1-1.9l0,0c-1.4-2.5-0.6-5.6,1.9-7.1c0,0,0,0,0,0l58.2-33.6c2.5-1.4,3.3-4.6,1.9-7.1c0,0,0,0,0,0
				l0,0c-1.4-2.5-4.6-3.3-7.1-1.9c0,0,0,0,0,0l-53.7,31c-2.5,1.4-5.6,0.6-7.1-1.9c0,0,0,0,0,0l0,0c-1.4-2.5-0.6-5.6,1.9-7.1
				c0,0,0,0,0,0l112-64.6c2.5-1.4,3.3-4.6,1.9-7.1l0,0c-1.4-2.5-4.6-3.3-7.1-1.9l-64.4,37.2c-2.5,1.4-5.6,0.6-7.1-1.9l0,0
				c-1.4-2.5-0.6-5.6,1.9-7.1c0,0,0,0,0,0l24.1-13.9c2.5-1.4,3.3-4.6,1.9-7.1c0,0,0,0,0,0l0,0c-1.4-2.5-4.6-3.3-7.1-1.9c0,0,0,0,0,0
				l-38.4,22.1c-2.5,1.4-5.6,0.6-7.1-1.9c0,0,0,0,0,0l0,0c-1.4-2.5-0.6-5.6,1.9-7.1c0,0,0,0,0,0l54.4-31.4c2.5-1.4,3.3-4.6,1.9-7.1
				s-4.6-3.3-7.1-1.9l-48.7,28.1c-2.5,1.4-5.7,0.6-7.1-1.9s-0.6-5.7,1.9-7.1l32.3-18.7c2.5-1.4,3.3-4.6,1.9-7.1c0,0,0,0,0,0l0,0
				c-1.4-2.5-4.6-3.3-7.1-1.9c0,0,0,0,0,0l-20.7,12c-2.5,1.4-5.6,0.6-7.1-1.9c0,0,0,0,0,0l0,0c-1.4-2.5-0.6-5.6,1.9-7.1c0,0,0,0,0,0
				l8-4.6c2.5-1.4,3.3-4.6,1.9-7.1c0,0,0,0,0,0l0,0c-1.4-2.5-4.6-3.3-7.1-1.9c0,0,0,0,0,0l-15.1,8.8c-2.5,1.4-5.7,0.6-7.1-1.9
				s-0.6-5.7,1.9-7.1l0,0l31.8-18.4c2.5-1.4,3.3-4.6,1.9-7.1s-4.6-3.3-7.1-1.9l-39.7,23c-2.5,1.4-5.6,0.6-7.1-1.9c0,0,0,0,0,0l0,0
				c-1.4-2.5-0.6-5.6,1.9-7.1c0,0,0,0,0,0l92-53.1c2.5-1.4,3.3-4.6,1.9-7.1c0,0,0,0,0,0l0,0c-1.4-2.5-4.6-3.3-7.1-1.9c0,0,0,0,0,0
				l-71.6,41.4c-2.5,1.4-5.7,0.6-7.1-1.9s-0.6-5.7,1.9-7.1l27.8-16c2.5-1.4,3.3-4.6,1.9-7.1c0,0,0,0,0,0l0,0
				c-1.4-2.5-4.6-3.3-7.1-1.9c0,0,0,0,0,0l-18.6,10.7c-2.5,1.4-5.7,0.6-7.1-1.9s-0.6-5.7,1.9-7.1l35.2-20.3c2.5-1.4,3.3-4.6,1.9-7.1
				c0,0,0,0,0,0l0,0c-1.4-2.5-4.6-3.3-7.1-1.9c0,0,0,0,0,0l-66.5,38.4c-2.5,1.4-5.7,0.6-7.1-1.9l0,0c-1.4-2.5-0.6-5.6,1.9-7.1
				c0,0,0,0,0,0l74.8-43.2c2.5-1.4,3.3-4.6,1.9-7.1s-4.6-3.3-7.1-1.9l-33,19c-2.5,1.4-5.6,0.6-7.1-1.9c0,0,0,0,0,0l0,0
				c-1.4-2.5-0.6-5.6,1.9-7.1c0,0,0,0,0,0l17.1-9.9c2.5-1.4,3.3-4.6,1.9-7.1c-1.4-2.5-4.6-3.3-7.1-1.9l-37.8,21.9
				c-2.5,1.4-5.6,0.6-7.1-1.9c0,0,0,0,0,0l0,0c-1.4-2.5-4.6-3.3-7.1-1.9l-187,107.9c-2.5,1.4-3.3,4.6-1.9,7.1c0,0,0,0,0,0l2.6,4.5
				l5.2,9l5.2,9l5.2,9l5.2,9l5.2,9l5.2,9l5.2,9l5.2,9l5.2,9l5.2,9l5.2,9l5.2,9l5.2,9l5.2,9l5.2,9l5.2,9l5.2,9l5.2,9l5.2,9l5.2,9
				l5.2,9l5.2,9l5.2,9l5.2,9l5.2,9l5.2,9l5.2,9l5.2,9l5.2,9l5.2,9l5.2,9l5.2,9l5.2,9l5.2,9l5.2,9l5.2,9l5.2,9l5.2,9l2.6,4.5l5.2,9
				l2.6,4.5l5.2,9l5.2,9l5.2,9l5.2,9l5.2,9l5.2,9l5.2,9l5.2,9l2.6,4.5c1.4,2.5,4.6,3.3,7.1,1.9L427,691c2.5-1.4,3.3-4.6,1.9-7.1
				c-1.4-2.5-4.6-3.3-7.1-1.9l-16.3,9.4c-2.5,1.4-5.6,0.6-7.1-1.9c0,0,0,0,0,0l0,0c-1.4-2.5-0.6-5.6,1.9-7.1c0,0,0,0,0,0l51.3-29.6
				c2.5-1.4,3.3-4.6,1.9-7.1C452.1,643.3,448.9,642.4,446.4,643.9L446.4,643.9z"/>
			<path class="st25" d="M269.9,578.2l-88.7,51.2c-2.5,1.4-5.6,0.6-7.1-1.9c0,0,0,0,0,0l0,0c-1.4-2.5-0.6-5.6,1.9-7.1c0,0,0,0,0,0
				l58.9-34c2.5-1.4,3.3-4.6,1.9-7.1c0,0,0,0,0,0l0,0c-1.4-2.5-4.6-3.3-7.1-1.9c0,0,0,0,0,0l-44.2,25.5c-2.5,1.4-5.6,0.6-7.1-1.9
				c0,0,0,0,0,0l0,0c-1.4-2.5-0.5-5.6,1.9-7l71.8-41.4c2.5-1.4,3.3-4.6,1.9-7.1l0,0c-1.4-2.5-4.6-3.3-7.1-1.9c0,0,0,0,0,0L152.5,598
				c-2.5,1.4-5.7,0.6-7.1-1.9c-1.4-2.5-0.6-5.7,1.9-7.1l57.8-33.4c2.4-1.4,3.3-4.6,1.9-7l0,0c-1.4-2.4-4.5-3.3-7-1.9l-45,26
				c-2.5,1.4-5.6,0.6-7.1-1.9c0,0,0,0,0,0l0,0c-1.4-2.5-0.6-5.6,1.9-7.1c0,0,0,0,0,0l37.1-21.4c2.5-1.4,3.3-4.6,1.9-7.1l0,0
				c-1.4-2.5-4.6-3.3-7.1-1.9c0,0,0,0,0,0l-47.3,27.2c-2.5,1.4-5.6,0.6-7.1-1.9c0,0,0,0,0,0l0,0c-1.4-2.5-0.6-5.7,1.9-7.1l87.2-50.4
				c2.5-1.4,3.3-4.6,1.9-7.1l0,0c-1.4-2.5-4.6-3.3-7.1-1.9l-120,69.3c-2.5,1.4-5.6,0.6-7.1-1.9c0,0,0,0,0,0l0,0
				c-1.4-2.5-0.6-5.6,1.9-7.1c0,0,0,0,0,0l63.8-36.9c2.5-1.4,3.3-4.6,1.9-7.1c0,0,0,0,0,0l0,0c-1.4-2.5-4.6-3.3-7.1-1.9c0,0,0,0,0,0
				l-38.2,22c-2.5,1.4-5.6,0.6-7.1-1.9c0,0,0,0,0,0l0,0c-1.4-2.5-0.6-5.6,1.9-7.1c0,0,0,0,0,0l81.5-47.1c2.5-1.4,3.3-4.6,1.9-7.1
				l0,0c-1.4-2.5-4.6-3.3-7.1-1.9c0,0,0,0,0,0L106.4,505c-2.5,1.4-5.7,0.6-7.1-1.9l0,0c-1.4-2.5-0.6-5.6,1.9-7.1c0,0,0,0,0,0
				l79.3-45.8c2.5-1.4,3.3-4.6,1.9-7.1c-1.4-2.5-4.6-3.3-7.1-1.9l0,0L63.5,505.8c-2.5,1.4-5.6,0.6-7.1-1.9c0,0,0,0,0,0
				c-1.4-2.5-0.6-5.6,1.9-7.1c0,0,0,0,0,0l87.7-50.6c2.5-1.4,3.3-4.6,1.9-7.1l0,0c-1.4-2.5-4.6-3.3-7.1-1.9c0,0,0,0,0,0l-68,39.3
				c-2.5,1.4-5.6,0.6-7.1-1.9c0,0,0,0,0,0l0,0c-1.4-2.5-0.6-5.6,1.9-7.1c0,0,0,0,0,0l81.2-46.9c2.5-1.4,3.3-4.6,1.9-7.1l0,0
				c-1.4-2.5-4.6-3.3-7.1-1.9c0,0,0,0,0,0L54,463.4c-2.5,1.4-5.6,0.6-7.1-1.9c0,0,0,0,0,0c-1.4-2.5-0.6-5.6,1.9-7.1c0,0,0,0,0,0
				l58.9-34c2.5-1.4,3.3-4.6,1.9-7.1c0,0,0,0,0,0c-1.4-2.5-4.6-3.3-7.1-1.9c0,0,0,0,0,0l-25.8,14.9c-2.5,1.4-5.6,0.6-7.1-1.9
				c0,0,0,0,0,0l0,0c-1.4-2.5-0.6-5.6,1.9-7.1c0,0,0,0,0,0l78.7-45.5c2.5-1.4,3.3-4.6,1.9-7.1c0,0,0,0,0,0l0,0
				c-1.4-2.5-4.6-3.4-7.1-2c0,0,0,0-0.1,0L10.8,440.4c-2.5,1.4-5.7,0.6-7.1-1.9c-1.4-2.5-0.6-5.6,1.9-7.1c0,0,0,0,0,0L84.4,386
				c2.5-1.4,3.3-4.6,1.9-7.1c0,0,0,0,0,0l0,0c-1.4-2.5-4.6-3.3-7.1-1.9c0,0,0,0,0,0l-32.9,19c-2.5,1.4-5.6,0.6-7.1-1.9c0,0,0,0,0,0
				c-1.4-2.5-0.6-5.6,1.9-7.1c0,0,0,0,0,0l21-12.1c2.5-1.4,3.3-4.6,1.9-7.1l0,0c-1.4-2.4-4.6-3.3-7-1.9l-37.7,21.8
				c-2.5,1.4-5.6,0.6-7.1-1.9c0,0,0,0,0,0l0,0c-1.4-2.5-0.6-5.6,1.9-7.1c0,0,0,0,0,0L86.3,337c2.5-1.4,3.3-4.6,1.9-7.1c0,0,0,0,0,0
				c-1.4-2.5-4.6-3.3-7.1-1.9c0,0,0,0,0,0l-61.2,35.3c-2.5,1.4-5.6,0.6-7.1-1.9c0,0,0,0,0,0l0,0c-1.4-2.5-0.6-5.6,1.9-7.1l86.4-49.9
				c2.5-1.4,3.3-4.6,1.9-7.1c-1.4-2.5-4.6-3.3-7.1-1.9c0,0,0,0,0,0l-57.2,33c-2.5,1.4-5.6,0.6-7.1-1.9c0,0,0,0,0,0l0,0
				c-1.4-2.5-4.6-3.3-7.1-1.9c0,0,0,0,0,0l-161.1,93c-2.5,1.4-3.3,4.6-1.9,7.1c0,0,0,0,0,0l2.6,4.5l5.2,9l5.2,9l5.2,9l5.2,9l5.2,9
				l5.2,9l5.2,9l5.2,9l5.2,9l5.2,9l5.2,9l5.2,9l5.2,9l5.2,9l5.2,9l5.2,9l5.2,9l5.2,9l5.2,9l5.2,9l5.2,9l5.2,9l5.2,9l5.2,9l5.2,9
				l5.2,9l5.2,9l5.2,9l5.2,9l5.2,9l5.2,9l5.2,9l5.2,9l5.2,9l5.2,9l5.2,9l5.2,9l5.2,9l2.6,4.5l2.8,4.9l2.3,4.1l2.6,4.5l5.2,9l5.2,9
				l5.2,9l5.2,9l5.2,9l5.2,9l5.2,9l5.2,9l2.6,4.5c1.4,2.5,4.6,3.3,7.1,1.9L292,768.9c2.5-1.4,3.3-4.6,1.9-7.1l0,0
				c-1.4-2.5-4.6-3.3-7.1-1.9c0,0,0,0,0,0l-28,16.2c-2.5,1.4-5.7,0.6-7.1-1.9c-1.4-2.5-0.6-5.7,1.9-7.1l45.9-26.5
				c2.5-1.4,3.3-4.6,1.9-7.1c0,0,0,0,0,0l0,0c-1.4-2.5-4.6-3.3-7.1-1.9c0,0,0,0,0,0l-30.8,17.8c-2.5,1.4-5.7,0.6-7.1-1.9
				c-1.4-2.5-0.6-5.7,1.9-7.1l54.4-31.4c2.5-1.4,3.3-4.6,1.9-7.1c-1.4-2.5-4.6-3.3-7.1-1.9L246,735.6c-2.5,1.4-5.6,0.6-7.1-1.9
				c0,0,0,0,0,0l0,0c-1.4-2.5-0.6-5.6,1.9-7.1c0,0,0,0,0,0l53.6-31c2.5-1.4,3.3-4.6,1.9-7.1c-1.4-2.5-4.6-3.3-7.1-1.9L260.9,703
				c-2.5,1.4-5.6,0.6-7.1-1.9c0,0,0,0,0,0l0,0c-1.4-2.5-0.6-5.6,1.9-7.1c0,0,0,0,0,0l21.1-12.2c2.5-1.4,3.3-4.6,1.9-7.1
				c-1.4-2.5-4.6-3.3-7.1-1.9l-41.8,24.2c-2.5,1.4-5.6,0.6-7.1-1.9c0,0,0,0,0,0c-1.5-2.3-0.8-5.4,1.5-6.9c0.1-0.1,0.3-0.2,0.5-0.3
				l0,0l27.4-15.8c2.5-1.4,3.3-4.6,1.9-7.1l0,0c-1.4-2.5-4.6-3.3-7.1-1.9c0,0,0,0,0,0l-55.5,32c-2.5,1.4-5.7,0.6-7.1-1.9
				c-1.4-2.5-0.6-5.7,1.9-7.1l81.3-46.9c2.5-1.4,3.3-4.6,1.9-7.1c0,0,0,0,0,0l0,0c-1.4-2.5-4.6-3.3-7.1-1.9c0,0,0,0,0,0l-45.5,26.3
				c-2.5,1.4-5.6,0.6-7.1-1.9c0,0,0,0,0,0l0,0c-1.4-2.5-0.6-5.6,1.9-7.1c0,0,0,0,0,0l32.7-18.9c2.5-1.4,3.3-4.6,1.9-7.1c0,0,0,0,0,0
				l0,0c-1.4-2.5-4.6-3.3-7.1-1.9c0,0,0,0,0,0l-36,20.8c-2.5,1.4-5.6,0.6-7.1-1.9l0,0c-1.4-2.5-0.6-5.6,1.9-7.1l77-44.5
				c2.5-1.4,3.3-4.6,1.9-7.1C275.5,577.5,272.4,576.7,269.9,578.2L269.9,578.2L269.9,578.2z"/>
		</g>
	</g>
	<path class="st2" d="M451.3,41.5L451.3,41.5c7.7-4.8,14.9-11.4,13.7-13.3c-1.2-1.9-10.2,1.6-17.9,6.4l0,0
		c-8.2-2.8-21.8-2.1-20.5-0.9c4,3.5,7.4,7.6,10.1,12.1c2.9,4.4,5,9.3,6.4,14.4C443.7,61.9,450.2,50.1,451.3,41.5z"/>
	<circle class="st26" cx="1418" cy="128.8" r="38.4"/>
	<g>
		<defs>
			<circle id="SVGID_7_" cx="1418" cy="128.8" r="38.4"/>
		</defs>
		<clipPath id="SVGID_8_">
			<use xlink:href="#SVGID_7_"  style="overflow:visible;"/>
		</clipPath>
		<g class="st27">
			<path class="st28" d="M1430.9,137.8L1430.9,137.8c0.7,1.1,0.3,2.5-0.7,3.1l-19.4,11.1c-1,0.6-1.4,1.8-0.8,2.8
				c0.3,0.5,0.7,0.9,1.3,1c0.5,0.2,1.1,0.1,1.6-0.2l8.2-4.7c1-0.6,2.3-0.3,2.9,0.7l0.1,0.1c0.6,1,0.2,2.3-0.8,2.9l-5.8,3.4
				c-1,0.6-1.4,1.9-0.8,2.9c0,0,0,0,0,0c0.3,0.5,0.7,0.9,1.3,1c0.5,0.1,1.1,0.1,1.6-0.2l9.7-5.6c1-0.6,2.3-0.2,2.9,0.8v0.1
				c0.6,0.9,0.3,2.2-0.7,2.8c0,0-0.1,0-0.1,0.1l-2.6,1.5c-1,0.6-1.3,1.9-0.8,2.9c0.3,0.5,0.8,0.8,1.3,1c0.5,0.2,1.1,0.1,1.6-0.2
				l2.5-1.4l-1.7,1c-18.4,10.6-41.9,4.3-52.5-14.1s-4.3-41.9,14.1-52.5l0,0c1.6-0.9,3.2-1.7,4.9-2.4c-0.2,0.6-0.2,1.3,0.2,1.8
				l0.1,0.1c0.6,1.1,0.2,2.4-0.8,3l-10.6,6.2c-1,0.6-1.4,1.8-0.8,2.8c0.3,0.5,0.7,0.8,1.3,1c0.5,0.1,1.1,0.1,1.6-0.2l13.5-7.8
				c1-0.6,2.3-0.2,2.9,0.8l0.1,0.1c0.6,1,0.2,2.3-0.8,2.9l-9.8,5.7c-1,0.6-1.4,1.9-0.8,2.9c0,0,0,0,0,0c0.3,0.5,0.7,0.9,1.3,1
				c0.5,0.1,1.1,0.1,1.6-0.2l8.2-4.7c1-0.6,2.3-0.2,2.8,0.8c0,0,0,0,0,0l0.1,0.1c0.6,0.9,0.3,2.2-0.7,2.7c0,0-0.1,0-0.1,0.1
				l-16.2,9.3c-1,0.6-1.3,1.9-0.8,2.9c0.3,0.5,0.8,0.8,1.3,1c0.5,0.2,1.1,0.1,1.6-0.2l10.1-5.8c1-0.6,2.2-0.3,2.8,0.7c0,0,0,0,0,0
				v0.1c0.6,1,0.3,2.3-0.7,2.9l-15.7,9.1c-1,0.6-1.4,1.8-0.8,2.9c0.3,0.5,0.7,0.9,1.3,1c0.5,0.1,1.1,0.1,1.6-0.2l22.4-12.9
				c1-0.6,2.3-0.3,2.9,0.7c0,0,0,0,0,0l0.1,0.1c0.6,1,0.2,2.3-0.8,2.9l-13.5,7.8c-1,0.6-1.4,1.9-0.8,2.9c0.6,1,1.8,1.3,2.8,0.7
				c0,0,0,0,0,0l11.4-6.6c1-0.6,2.4-0.3,3,0.8l0.1,0.1c0.5,1,0.2,2.3-0.9,2.9l-13.8,8c-1,0.6-1.3,1.9-0.8,2.9c0.3,0.5,0.8,0.8,1.3,1
				c0.5,0.2,1.1,0.1,1.6-0.2l21.2-12.3C1429,136.5,1430.3,136.8,1430.9,137.8z"/>
			<path class="st3" d="M1464.3,101.3c10.2,17.7,4.8,40.3-12.3,51.4l-7.8,4.5c-1,0.5-2.3,0.1-2.8-0.9c-0.5-1-0.2-2.2,0.7-2.8
				l7.9-4.6c1-0.6,1.3-1.9,0.8-2.9l-0.1-0.1c-0.6-1-1.9-1.4-2.9-0.8c0,0,0,0,0,0l-9.7,5.6c-1,0.5-2.3,0.1-2.8-1
				c-0.5-1-0.2-2.1,0.7-2.7l12.5-7.2c1-0.6,1.4-1.9,0.8-2.9l-0.1-0.1c-0.6-1-1.8-1.4-2.9-0.8c0,0,0,0,0,0l-8.2,4.7
				c-1,0.5-2.3,0.1-2.8-0.9c-0.5-1-0.2-2.2,0.7-2.8l12.7-7.4c1-0.6,1.4-1.8,0.8-2.9c0,0,0,0,0,0V127c-0.6-1-1.9-1.4-2.9-0.8
				l-14.6,8.4c-1,0.6-2.3,0.2-2.9-0.8c-0.6-1-0.2-2.3,0.8-2.9l0,0l7.1-4.1c1-0.6,1.4-1.9,0.8-2.9l-0.1-0.1c-0.6-1-1.9-1.4-2.9-0.8
				c0,0,0,0,0,0l-6.1,3.5c-0.5,0.3-1.1,0.4-1.6,0.2c-1.1-0.3-1.8-1.5-1.5-2.6c0.1-0.5,0.5-1,1-1.3l10.8-6.2c1-0.6,1.4-1.9,0.8-2.9
				c0,0,0,0,0,0v-0.1c-0.6-1-1.9-1.4-2.9-0.8l-12.9,7.5c-0.5,0.3-1.1,0.4-1.6,0.2c-1.1-0.3-1.8-1.5-1.5-2.6c0.1-0.5,0.5-1,1-1.3
				l14.4-8.3c1-0.6,1.3-1.9,0.8-2.9l-0.1-0.1c-0.6-1-1.9-1.3-2.9-0.8l-11.4,6.6c-0.5,0.3-1.1,0.4-1.6,0.2c-1.1-0.3-1.8-1.5-1.5-2.6
				c0.1-0.5,0.5-1,1-1.3l6.8-3.9c1-0.6,1.4-1.9,0.8-2.9c0,0,0,0,0,0l-0.1-0.1c-0.6-1-1.9-1.4-2.9-0.8c0,0,0,0,0,0l-13.5,7.8
				c-1,0.6-2.3,0.2-2.9-0.8s-0.2-2.3,0.8-2.9l0,0l15.2-8.8c1-0.6,1.4-1.9,0.8-2.9c0,0,0,0,0,0l-0.1-0.1c-0.6-1-1.9-1.4-2.9-0.8
				c0,0,0,0,0,0l-13.5,7.8c-0.5,0.3-1.1,0.4-1.6,0.2c-0.5-0.1-1-0.5-1.3-1c-0.6-1-0.2-2.3,0.8-2.9l10.6-6.2c1-0.6,1.4-1.8,0.8-2.9
				c0,0,0,0,0,0v-0.1c-0.3-0.6-0.4-1.3-0.1-1.9C1434.6,77.9,1454.8,84.9,1464.3,101.3z"/>
		</g>
	</g>
</g>
</svg>
