<svg xmlns="http://www.w3.org/2000/svg" viewBox="0 0 50.7 80.6"><defs><style>.a,.g{fill:none;stroke:#fff;}.a{stroke-linecap:round;stroke-linejoin:round;stroke-width:6px;}.b{fill:#f0924d;}.c{fill:#f9b17d;}.d{fill:#d62543;}.e{fill:#f4213a;}.f{fill:#fff;}.g{stroke-miterlimit:10;stroke-width:0.5px;}.h{fill:#509ec9;}.i{opacity:0.3;}</style></defs><title>001</title><path class="a" d="M45.7,64.3V56.5c0-9.4-4.2-12.8-7.9-13.9a47.22,47.22,0,0,0,.3-8.4C38.2,10.3,23.3,1,23.3,1S8.4,10.3,8.5,34.1a47.29,47.29,0,0,0,.4,8.4C5.1,43.6,1,47,1,56.4v7.9a2,2,0,0,0,2,2h.1a2.39,2.39,0,0,0,1.4-.5h0l.1-.1h0l9.7-9,.1.1c.9,10.8,4.7,18.8,9.1,18.8s8.2-8.1,9.1-18.8l.1-.1,9.7,9h0l.1.1h0a1.9,1.9,0,0,0,3.2-1.5ZM23.3,1" transform="translate(2 2)"/><path class="b" d="M23.3,28C18.2,28,14,38.7,14,51.8s4.2,23.8,9.4,23.8S32.7,65,32.7,51.8,28.5,28,23.3,28Z" transform="translate(2 2)"/><path class="c" d="M23.3,23.4c-4.1,0-7.4,10.6-7.4,23.8S19.3,71,23.4,71s7.4-10.7,7.4-23.8S27.4,23.4,23.3,23.4Z" transform="translate(2 2)"/><path class="d" d="M45.7,64.3V56.5c0-17.1-13.6-14.2-13.6-14.2L23.4,53,31,55.3,42.2,65.7h0l.1.1h0a2,2,0,0,0,1.4.6,2.16,2.16,0,0,0,2-2.1ZM1,56.4v7.9a2,2,0,0,0,2,2h.1a2.39,2.39,0,0,0,1.4-.5h0l.1-.1h0L15.8,55.3,23.4,53,14.6,42.2C14.5,42.2,1,39.3,1,56.4Z" transform="translate(2 2)"/><path class="e" d="M23.3,1,38.2,34.1C38.2,10.3,23.3,1,23.3,1S8.4,10.3,8.5,34.1c0,0-1.6,26.5,14.8,26.5h.3C39.8,60.7,38.2,34.1,38.2,34.1Z" transform="translate(2 2)"/><path class="f" d="M23.5,57.9h-.3a16.59,16.59,0,0,1-10.7-3.5c2.2,3.6,5.6,6.3,10.7,6.3h.3a11.71,11.71,0,0,0,10.7-6.3A16.4,16.4,0,0,1,23.5,57.9Z" transform="translate(2 2)"/><path class="f" d="M23.3,1S17.5,4.6,13.2,13.1a52.8,52.8,0,0,0,20.2,0C29.1,4.6,23.3,1,23.3,1Zm0,0" transform="translate(2 2)"/><path class="g" d="M23.3,1S17.5,4.6,13.2,13.1a52.8,52.8,0,0,0,20.2,0C29.1,4.6,23.3,1,23.3,1Zm0,0" transform="translate(2 2)"/><path class="f" d="M23.3,20.6a7.34,7.34,0,0,0-7.4,7.5,7.49,7.49,0,0,0,7.5,7.5,7.41,7.41,0,0,0,7.4-7.5,7.49,7.49,0,0,0-7.5-7.5Z" transform="translate(2 2)"/><path class="h" d="M23.3,22.5a5.6,5.6,0,1,0,5.6,5.6h0a5.59,5.59,0,0,0-5.6-5.6Z" transform="translate(2 2)"/><g class="i"><path class="f" d="M21.4,24.3a1.9,1.9,0,1,0,1.9,1.9h0A1.9,1.9,0,0,0,21.4,24.3Z" transform="translate(2 2)"/></g><path class="d" d="M23.3,42c-1.5,0-2.8,5.4-2.8,12.1s1.3,12.2,2.8,12.2,2.8-5.4,2.8-12.1S24.9,42,23.3,42Z" transform="translate(2 2)"/></svg>