<svg xmlns="http://www.w3.org/2000/svg" viewBox="0 0 75.8 89.5"><defs><style>.a{fill:#ee3662;}.b{fill:#fff;}</style></defs><title>top</title><path class="a" d="M400.5,341.5H390.2c-6.6-.1-9.3-2.8-9.3-9.5V298h-3.6c-2.8,0-8.7,0-10.8-4.8s2.1-9.1,4.9-11.9l.6-.7c6.2-6.4,12.5-12.6,17.4-17.4s8.1-6.2,11.8-6.2,7,1.7,11,5.3,10.6,10.1,15.6,15.2c2.1,2.1,4.1,4.2,6.2,6.2a8.7,8.7,0,0,1,2,9.7c-2.2,4.6-7,4.6-11.6,4.6h-2.6v33.8c-.1,7-2.6,9.6-9.6,9.7Z" transform="translate(-363.4 -254.5)"/><path class="b" d="M401.2,259.5c3,0,5.9,1.5,9.3,4.7,7.5,6.8,14.5,14.2,21.7,21.3a6,6,0,0,1,1.5,6.8c-1.4,3.1-4.6,3.2-9.3,3.2h-5.1v36.3c-.1,5.6-1.6,7.1-7.1,7.2h-22c-5.2-.1-6.8-1.6-6.8-7V295.5h-6.1c-3.3,0-7.2-.3-8.5-3.3s2.4-7.1,5-9.9c5.7-5.8,11.5-11.6,17.3-17.3,3.8-3.6,6.9-5.5,10.1-5.5m0-5h0c-5.7,0-10.3,3.7-13.6,7-5.1,5-11.2,11-17.4,17.4l-.6.6c-3.1,3.1-8.2,8.3-5.4,14.7s10,6.3,13.1,6.3h1.1V332c0,8.1,3.8,11.9,11.7,12h22.1c8.3-.1,12-3.8,12.1-12.2V300.5h.1c4.6,0,11,0,13.8-6.1a10.8,10.8,0,0,0-2.4-12.4l-6.2-6.3c-5.1-5-10.3-10.3-15.7-15.2s-8.5-6-12.7-6Z" transform="translate(-363.4 -254.5)"/></svg>